<svg width="762" height="454" viewBox="0 0 762 454" fill="none" xmlns="http://www.w3.org/2000/svg">
<path d="M215.623 0H147.4V93.362H215.623V0Z" fill="#F5F5F5"/>
<path d="M198.333 11.7563H130.11V105.118H198.333V11.7563Z" fill="#E0E0E0"/>
<path d="M519.911 139.427H519.471H518.149H513.011L493.733 139.495L427.227 139.721H427.046V139.54C426.316 137.041 426.186 134.404 426.668 131.844C427.15 129.285 428.23 126.876 429.82 124.813C431.409 122.75 433.464 121.092 435.815 119.973C438.167 118.855 440.75 118.308 443.354 118.377L443.116 118.704C442.696 117.237 442.52 115.711 442.597 114.187C442.675 111.633 443.418 109.143 444.753 106.965C446.088 104.786 447.969 102.993 450.209 101.764C452.388 100.627 454.813 100.04 457.271 100.054C459.729 100.068 462.147 100.682 464.314 101.843L463.964 101.967C465.168 99.1796 466.936 96.6716 469.158 94.6015C471.38 92.5314 474.006 90.9442 476.872 89.94C479.509 88.943 482.323 88.4968 485.139 88.6289C487.956 88.7609 490.715 89.4685 493.248 90.708C497.814 93.1155 501.405 97.0303 503.412 101.787C505.245 105.961 505.68 110.615 504.654 115.056L504.473 114.842C507.094 114.57 509.742 114.959 512.175 115.971C514.34 116.845 516.29 118.178 517.89 119.879C518.617 120.644 519.222 121.516 519.685 122.465C520.096 123.341 520.418 124.257 520.645 125.198C521.033 126.843 521.253 128.523 521.3 130.212C521.379 132.532 521.178 134.852 520.702 137.124C520.574 137.716 520.412 138.301 520.216 138.874L520.013 139.439" fill="#EBEBEB"/>
<path d="M697.295 95.0561C694.148 95.5813 691.211 96.9822 688.822 99.0983C686.434 101.214 684.689 103.96 683.788 107.022C682.887 110.083 682.866 113.337 683.727 116.409C684.589 119.482 686.298 122.25 688.66 124.397C691.021 126.544 693.939 127.982 697.08 128.548C700.221 129.114 703.457 128.784 706.419 127.596C709.381 126.408 711.949 124.41 713.829 121.831C715.708 119.252 716.824 116.196 717.047 113.012L721.712 112.233L724.241 106.971L727.878 111.194L733.716 110.223L736.212 104.983L739.849 109.207L744.863 108.371L746.387 105.175L748.646 107.75L751.571 107.264L754.778 103.018L749.279 96.9646L714.552 102.736C712.757 99.8923 710.16 97.645 707.088 96.2781C704.017 94.9111 700.609 94.4858 697.295 95.0561ZM687.832 113.871C687.674 112.92 687.801 111.945 688.198 111.066C688.594 110.188 689.241 109.447 690.058 108.936C690.875 108.426 691.824 108.168 692.787 108.196C693.75 108.224 694.683 108.537 695.469 109.095C696.254 109.653 696.857 110.43 697.201 111.33C697.546 112.23 697.616 113.212 697.403 114.151C697.19 115.091 696.703 115.946 696.005 116.61C695.307 117.273 694.427 117.715 693.478 117.88C692.844 117.99 692.194 117.973 691.566 117.831C690.939 117.689 690.345 117.424 689.82 117.051C689.295 116.678 688.849 116.205 688.508 115.66C688.167 115.114 687.937 114.506 687.832 113.871Z" fill="#EBEBEB"/>
<path d="M680.05 224.974L682.151 263.485C682.185 264.146 682.471 264.769 682.95 265.227C683.428 265.684 684.064 265.942 684.726 265.947L754.01 266.444C754.352 266.447 754.69 266.382 755.006 266.255C755.322 266.127 755.61 265.938 755.854 265.699C756.097 265.46 756.291 265.175 756.424 264.861C756.557 264.547 756.628 264.21 756.63 263.869L756.845 233.896C756.848 233.553 756.783 233.213 756.654 232.895C756.525 232.578 756.334 232.289 756.092 232.045C755.851 231.801 755.563 231.608 755.247 231.476C754.93 231.344 754.591 231.276 754.248 231.276H711.638C711.297 231.277 710.959 231.21 710.645 231.078C710.331 230.946 710.046 230.752 709.808 230.508L702.456 223.168C701.973 222.685 701.321 222.41 700.638 222.4L682.67 222.275C682.319 222.272 681.97 222.34 681.645 222.476C681.321 222.611 681.027 222.811 680.782 223.064C680.537 223.316 680.346 223.615 680.22 223.944C680.094 224.272 680.037 224.623 680.05 224.974Z" fill="#EBEBEB"/>
<path d="M756.905 226.758L681.196 226.203L680.864 271.443L756.573 271.998L756.905 226.758Z" fill="#F5F5F5"/>
<path d="M675.149 230.215L680.581 277.421C680.626 277.828 680.818 278.205 681.122 278.48C681.426 278.755 681.82 278.908 682.23 278.911L756.01 279.442C756.429 279.446 756.835 279.292 757.145 279.009C757.455 278.726 757.647 278.336 757.681 277.918L761.747 230.768C761.767 230.538 761.739 230.306 761.665 230.087C761.591 229.869 761.472 229.668 761.315 229.498C761.159 229.328 760.969 229.192 760.758 229.1C760.546 229.007 760.317 228.96 760.086 228.961L676.809 228.351C676.573 228.349 676.339 228.398 676.123 228.494C675.908 228.59 675.715 228.73 675.557 228.907C675.4 229.083 675.283 229.291 675.212 229.517C675.142 229.742 675.12 229.98 675.149 230.215Z" fill="#EBEBEB"/>
<path d="M671.309 437.583C653.748 425.318 649.762 402.573 650.462 382.065C650.575 378.677 650.202 375.04 651.828 372.048C653.455 369.055 657.238 366.999 660.298 368.434C662.839 369.631 663.946 372.59 665.369 375.029C667.261 378.287 670.037 380.941 673.376 382.686C675.556 383.815 678.255 384.504 680.401 383.318C683.348 381.692 683.698 377.615 683.676 374.216C683.63 367.877 683.589 361.545 683.551 355.22C683.346 351.822 683.693 348.412 684.579 345.124C685.641 341.894 687.967 338.902 691.208 337.987C694.449 337.072 698.436 338.947 699.114 342.278C699.24 343.686 699.27 345.101 699.204 346.513C699.306 347.925 699.961 349.483 701.293 349.901C702.626 350.319 704.015 349.337 705.031 348.332C708.543 344.944 710.915 340.483 713.14 336.09C715.365 331.696 717.533 327.19 720.718 323.441C723.902 319.692 728.296 316.733 733.14 316.462C737.985 316.191 743.203 319.195 744.434 323.972C745.665 328.749 742.864 333.628 739.826 337.524C735.309 343.277 729.983 348.348 724.015 352.578C722.871 353.228 721.961 354.225 721.418 355.424C720.684 357.682 722.83 359.941 725.066 360.686C727.595 361.533 730.351 361.262 732.971 361.579C735.591 361.895 738.493 363.058 739.499 365.565C740.888 369.032 737.985 372.68 735.128 375.063C729.412 379.836 722.918 383.591 715.929 386.164C713.422 387.079 710.791 387.881 708.781 389.643C706.77 391.404 705.539 394.453 706.759 396.848C707.979 399.242 711.107 400.01 713.727 399.524C716.347 399.039 718.685 397.616 721.181 396.678C725.856 394.917 731.887 395.233 734.88 399.276C735.792 400.665 736.369 402.247 736.565 403.897C736.761 405.547 736.571 407.221 736.009 408.785C734.871 411.901 733.12 414.758 730.859 417.187C723.45 426.057 713.821 432.803 702.953 436.736C692.123 440.496 682.083 441.513 671.332 437.571" fill="#EBEBEB"/>
<path d="M671.038 452.761C671.996 443.27 673.856 433.892 676.595 424.754C679.998 413.615 684.036 402.68 688.69 392.003L692.293 383.578C693.49 380.811 694.664 378.067 695.985 375.458C698.531 370.448 701.355 365.584 704.444 360.89C707.358 356.372 710.283 352.217 713.05 348.343C715.817 344.469 718.482 340.912 721.034 337.772C725.045 332.773 729.449 328.102 734.202 323.802C735.873 322.289 737.217 321.16 738.132 320.414L739.182 319.556C739.294 319.449 739.419 319.358 739.555 319.285L739.228 319.613C738.968 319.827 738.64 320.132 738.211 320.505C737.319 321.295 735.953 322.459 734.36 323.994C729.69 328.338 725.349 333.023 721.373 338.009C718.843 341.16 716.223 344.729 713.468 348.603C710.712 352.476 707.821 356.666 704.918 361.161C701.861 365.868 699.064 370.739 696.539 375.752C695.229 378.349 694.054 381.06 692.868 383.838L689.255 392.263C684.616 402.947 680.574 413.881 677.148 425.013C674.402 434.112 672.512 443.447 671.501 452.897" fill="#E0E0E0"/>
<path d="M696.166 375.39C696.009 374.917 695.899 374.429 695.838 373.934C695.658 372.996 695.443 371.675 695.206 369.936C694.72 366.548 694.224 361.861 693.681 356.677C693.139 351.494 692.552 346.818 692.044 343.453C691.784 341.77 691.558 340.404 691.4 339.466C691.276 338.983 691.212 338.486 691.208 337.987C691.404 338.448 691.548 338.929 691.637 339.421C691.875 340.336 692.168 341.68 692.484 343.374C693.128 346.762 693.772 351.426 694.303 356.61C694.833 361.793 695.285 366.344 695.647 369.879C695.816 371.472 695.963 372.827 696.076 373.9C696.164 374.391 696.194 374.892 696.166 375.39Z" fill="#E0E0E0"/>
<path d="M739.871 367.214C739.297 367.345 738.71 367.417 738.121 367.429C736.991 367.53 735.377 367.666 733.378 367.892C729.38 368.332 723.869 369.123 717.838 370.252C711.807 371.381 706.375 372.68 702.479 373.708C700.525 374.216 698.956 374.668 697.871 374.972C697.316 375.159 696.745 375.299 696.166 375.39C696.691 375.122 697.239 374.903 697.804 374.735C698.865 374.351 700.424 373.843 702.321 373.278C706.195 372.149 711.615 370.783 717.669 369.631C722.838 368.637 728.055 367.909 733.299 367.451C735.309 367.27 736.935 367.203 738.064 367.18C738.667 367.146 739.271 367.157 739.871 367.214Z" fill="#E0E0E0"/>
<path d="M677.137 423.952C677.013 423.784 676.911 423.602 676.832 423.41C676.629 422.992 676.38 422.461 676.087 421.829C675.443 420.462 674.562 418.441 673.512 415.933C671.4 410.931 668.712 403.929 665.843 396.159C662.975 388.389 660.344 381.353 658.345 376.316C657.362 373.866 656.56 371.799 655.951 370.342L655.318 368.716C655.231 368.529 655.167 368.331 655.126 368.129C655.249 368.296 655.352 368.478 655.431 368.671L656.176 370.252C656.82 371.618 657.701 373.64 658.751 376.147C660.863 381.15 663.551 388.152 666.419 395.933C669.288 403.714 671.919 410.727 673.918 415.764L676.312 421.738L676.945 423.364C677.032 423.552 677.096 423.749 677.137 423.952Z" fill="#E0E0E0"/>
<path d="M735.207 405.227C735.026 405.331 734.833 405.411 734.631 405.465L732.937 406.029L726.726 408.051C721.474 409.756 714.247 412.184 706.274 414.827C698.3 417.469 691.028 419.909 685.742 421.501C683.1 422.303 680.954 422.924 679.463 423.319L677.747 423.771C677.548 423.833 677.344 423.875 677.137 423.895C677.317 423.787 677.51 423.704 677.713 423.647L679.395 423.093L685.618 421.072C690.869 419.367 698.041 416.939 706.07 414.228C714.1 411.518 721.305 409.158 726.59 407.565C729.233 406.763 731.379 406.142 732.869 405.747L734.597 405.295C734.798 405.251 735.002 405.229 735.207 405.227Z" fill="#E0E0E0"/>
<path d="M742.245 453.212C742.245 453.541 580.058 453.782 380.035 453.782C180.012 453.782 17.7804 453.541 17.7804 453.212C17.7804 452.883 179.933 452.707 380.035 452.707C580.137 452.707 742.245 452.904 742.245 453.212Z" fill="#263238"/>
<path d="M659.113 413.381C661.078 415.922 664.613 414.872 666.194 413.178C667.775 411.484 668.351 409.135 668.882 406.876C670.079 401.738 671.287 396.351 669.943 391.246C669.598 389.694 668.836 388.265 667.741 387.113C667.185 386.55 666.49 386.143 665.727 385.933C664.964 385.723 664.159 385.717 663.393 385.916C661.609 386.481 660.581 388.299 659.858 390.027C657.72 395.108 656.744 400.602 657.001 406.108C656.953 408.691 657.689 411.227 659.113 413.381Z" fill="#1675FF"/>
<g opacity="0.2">
<path d="M659.113 413.381C661.078 415.922 664.613 414.872 666.194 413.178C667.775 411.484 668.351 409.135 668.882 406.876C670.079 401.738 671.287 396.351 669.943 391.246C669.598 389.694 668.836 388.265 667.741 387.113C667.185 386.55 666.49 386.143 665.727 385.933C664.964 385.723 664.159 385.717 663.393 385.916C661.609 386.481 660.581 388.299 659.858 390.027C657.72 395.108 656.744 400.602 657.001 406.108C656.953 408.691 657.689 411.227 659.113 413.381Z" fill="#1E1E1E"/>
</g>
<path d="M666.646 426.346C669.658 424.74 673.105 424.142 676.482 424.641C678.315 424.716 680.072 425.4 681.474 426.583C682.772 427.871 683.123 430.231 681.779 431.462C680.9 432.114 679.823 432.445 678.729 432.399C676.109 432.501 673.184 432.185 671.174 433.867C670.045 434.816 669.311 436.352 667.91 436.871C667.204 437.07 666.453 437.035 665.768 436.77C665.084 436.506 664.504 436.026 664.116 435.403C663.373 434.128 663.146 432.616 663.483 431.179C663.602 430.184 663.949 429.23 664.498 428.392C665.046 427.553 665.781 426.853 666.646 426.346Z" fill="#1675FF"/>
<path d="M654.223 417.413C655.104 416.129 655.659 414.65 655.84 413.103C656.021 411.557 655.822 409.989 655.262 408.536C654.09 405.626 652.136 403.097 649.615 401.23C646.765 398.942 643.497 397.231 639.993 396.193C638.637 395.726 637.197 395.556 635.769 395.696C635.065 395.772 634.389 396.017 633.799 396.41C633.209 396.803 632.723 397.333 632.381 397.955C631.489 399.886 632.551 402.11 633.669 403.906C635.626 407.087 637.831 410.108 640.264 412.941C642.229 415.199 644.454 417.458 647.3 418.373C650.146 419.288 653.06 419.028 654.449 417.018" fill="#1675FF"/>
<path d="M660.999 453.043C661.075 452.649 661.109 452.248 661.101 451.846C661.101 450.965 661.202 449.87 661.259 448.56C661.315 447.25 661.462 445.545 661.744 443.749C662.077 441.801 662.564 439.883 663.201 438.012C663.824 436.147 664.706 434.379 665.821 432.761C666.733 431.443 667.93 430.347 669.322 429.553C670.26 429.018 671.278 428.636 672.337 428.424C672.721 428.389 673.099 428.313 673.467 428.198C673.065 428.151 672.66 428.151 672.258 428.198C671.156 428.336 670.089 428.672 669.108 429.192C667.64 429.969 666.375 431.079 665.415 432.433C664.248 434.077 663.331 435.885 662.693 437.797C662.046 439.694 661.566 441.644 661.259 443.625C661.026 445.237 660.894 446.863 660.863 448.492C660.863 449.881 660.863 451.011 660.863 451.779C660.859 452.204 660.904 452.629 660.999 453.043Z" fill="#263238"/>
<path d="M661.089 450.525C661.104 450.341 661.104 450.156 661.089 449.972C661.089 449.554 661.089 449.023 661.01 448.379C660.931 447.013 660.829 444.991 660.784 442.552C660.66 437.628 660.784 430.83 661.18 423.353C661.575 415.877 662.377 409.079 663.122 404.211C663.303 402.991 663.483 401.896 663.653 400.936C663.822 399.976 663.958 399.14 664.105 398.463C664.251 397.785 664.319 397.333 664.398 396.904C664.436 396.722 664.459 396.537 664.466 396.351C664.384 396.519 664.327 396.698 664.297 396.882L663.913 398.429C663.743 399.095 663.574 399.92 663.382 400.88C663.19 401.84 662.975 402.935 662.783 404.155C661.74 410.512 661.039 416.921 660.683 423.353C660.242 430.863 660.22 437.696 660.434 442.62C660.525 445.093 660.683 447.081 660.818 448.458L660.988 450.039C661 450.205 661.034 450.368 661.089 450.525Z" fill="#263238"/>
<path d="M660.457 437.391C660.469 436.839 660.435 436.288 660.355 435.742C660.185 434.244 659.94 432.755 659.621 431.281C659.155 429.095 658.559 426.937 657.837 424.821C656.975 422.217 655.93 419.677 654.708 417.221C652.581 412.695 649.65 408.593 646.058 405.115C645.433 404.521 644.773 403.967 644.081 403.454C643.777 403.229 643.506 403.003 643.234 402.822L642.478 402.348C642.016 402.045 641.537 401.77 641.044 401.523C642.71 402.713 644.305 403.998 645.821 405.374C649.289 408.89 652.131 412.973 654.223 417.447C655.439 419.88 656.488 422.393 657.362 424.968C658.094 427.066 658.72 429.2 659.237 431.36C659.678 433.201 659.949 434.748 660.129 435.765C660.193 436.315 660.302 436.859 660.457 437.391Z" fill="#263238"/>
<path d="M127.818 199.293H0.135536V284.807H127.818V199.293Z" fill="#FAFAFA"/>
<path d="M93.1248 251.164H89.7368V230.689C89.6546 228.379 88.6792 226.191 87.0161 224.586C85.353 222.981 83.1319 222.085 80.8207 222.085C78.5094 222.085 76.2884 222.981 74.6253 224.586C72.9622 226.191 71.9868 228.379 71.9046 230.689V251.164H68.5166V230.689C68.6136 227.487 69.9536 224.449 72.2526 222.219C74.5516 219.988 77.6288 218.741 80.832 218.741C84.0351 218.741 87.1124 219.988 89.4114 222.219C91.7104 224.449 93.0504 227.487 93.1474 230.689L93.1248 251.164Z" fill="#263238"/>
<path d="M93.825 242.05H67.7939C65.6795 242.05 63.9654 243.764 63.9654 245.878V259.837C63.9654 261.951 65.6795 263.665 67.7939 263.665H93.825C95.9394 263.665 97.6535 261.951 97.6535 259.837V245.878C97.6535 243.764 95.9394 242.05 93.825 242.05Z" fill="#263238"/>
<path d="M80.8151 252.858C80.259 252.858 79.7153 252.693 79.2528 252.384C78.7904 252.075 78.43 251.636 78.2171 251.122C78.0043 250.608 77.9486 250.043 78.0571 249.497C78.1656 248.952 78.4334 248.451 78.8267 248.057C79.22 247.664 79.721 247.396 80.2665 247.288C80.812 247.179 81.3774 247.235 81.8912 247.448C82.4051 247.661 82.8443 248.021 83.1532 248.483C83.4622 248.946 83.6272 249.49 83.6272 250.046C83.6272 250.791 83.3309 251.507 82.8035 252.034C82.2762 252.561 81.5609 252.858 80.8151 252.858Z" fill="#455A64"/>
<path d="M81.5831 251.164H80.0472V256.957H81.5831V251.164Z" fill="#455A64"/>
<path d="M63.1297 250.915C65.5687 249.84 67.6383 248.073 69.0818 245.833C70.5253 243.592 71.2791 240.977 71.2497 238.312C71.2497 230.779 65.603 224.647 58.5221 224.613C51.4411 224.579 45.7154 230.655 45.6815 238.165C45.6228 240.857 46.367 243.504 47.8192 245.771C49.2714 248.038 51.3658 249.821 53.8353 250.893C34.2188 253.885 35.0545 275.241 35.0545 275.241L81.5718 275.456C81.5718 275.456 82.6333 253.863 63.1297 250.915Z" fill="#1675FF"/>
<path d="M127.807 284.818C127.807 284.818 127.807 284.276 127.807 283.248C127.807 282.22 127.807 280.707 127.807 278.731C127.807 274.767 127.807 268.962 127.739 261.531C127.739 246.669 127.671 225.325 127.626 199.293L127.852 199.531H0.237159L0.530784 199.237C0.530784 229.729 0.530784 258.674 0.530784 284.761L0.271038 284.49L92.2327 284.615L118.524 284.694H125.514H127.321H127.942H125.582H118.636L92.4134 284.773L0.271038 284.897H0V284.637C0 258.55 0 229.582 0 199.113V198.819H0.304921L127.976 198.887H128.213V199.113C128.213 225.2 128.123 246.601 128.089 261.497C128.089 268.906 128.089 274.699 128.033 278.652C128.033 280.605 128.033 282.096 128.033 283.169C128.033 284.242 127.807 284.818 127.807 284.818Z" fill="#263238"/>
<path d="M127.784 209.57C127.784 209.728 99.2119 209.864 63.988 209.864C28.7641 209.864 0.191956 209.728 0.191956 209.57C0.191956 209.412 28.7528 209.277 63.988 209.277C99.2232 209.277 127.784 209.412 127.784 209.57Z" fill="#263238"/>
<path d="M8.53777 204.443C8.53777 204.704 8.46028 204.96 8.31509 205.177C8.1699 205.395 7.96354 205.564 7.7221 205.664C7.48066 205.764 7.21499 205.79 6.95868 205.739C6.70237 205.688 6.46693 205.562 6.28214 205.377C6.09735 205.193 5.97151 204.957 5.92052 204.701C5.86954 204.445 5.8957 204.179 5.99571 203.937C6.09572 203.696 6.26508 203.49 6.48237 203.345C6.69966 203.199 6.95512 203.122 7.21645 203.122C7.56689 203.122 7.90297 203.261 8.15077 203.509C8.39857 203.757 8.53777 204.093 8.53777 204.443Z" fill="#263238"/>
<path d="M12.863 204.443C12.863 204.794 12.7238 205.13 12.476 205.377C12.2282 205.625 11.8921 205.764 11.5417 205.764C11.1912 205.764 10.8551 205.625 10.6074 205.377C10.3596 205.13 10.2203 204.794 10.2203 204.443C10.2203 204.093 10.3596 203.757 10.6074 203.509C10.8551 203.261 11.1912 203.122 11.5417 203.122C11.8921 203.122 12.2282 203.261 12.476 203.509C12.7238 203.757 12.863 204.093 12.863 204.443Z" fill="#263238"/>
<path d="M17.5047 204.443C17.5046 204.703 17.4279 204.957 17.2841 205.174C17.1404 205.39 16.936 205.559 16.6965 205.66C16.457 205.761 16.1931 205.789 15.9378 205.741C15.6824 205.693 15.447 205.57 15.2609 205.389C15.0749 205.207 14.9464 204.975 14.8917 204.721C14.8369 204.467 14.8583 204.203 14.9532 203.961C15.048 203.719 15.2121 203.51 15.4248 203.361C15.6376 203.212 15.8897 203.129 16.1495 203.122C16.3258 203.117 16.5013 203.148 16.6655 203.213C16.8298 203.277 16.9795 203.374 17.1058 203.497C17.2321 203.62 17.3324 203.767 17.4009 203.93C17.4695 204.092 17.5047 204.267 17.5047 204.443Z" fill="#263238"/>
<path d="M127.807 284.818C127.807 284.818 127.807 284.276 127.807 283.248C127.807 282.22 127.807 280.707 127.807 278.731C127.807 274.767 127.807 268.962 127.739 261.531C127.739 246.669 127.671 225.325 127.626 199.293L127.852 199.531H0.237159L0.530784 199.237C0.530784 229.729 0.530784 258.674 0.530784 284.761L0.271038 284.49L92.2327 284.615L118.524 284.694H125.514H127.321H127.942H125.582H118.636L92.4134 284.773L0.271038 284.897H0V284.637C0 258.55 0 229.582 0 199.113V198.819H0.304921L127.976 198.887H128.213V199.113C128.213 225.2 128.123 246.601 128.089 261.497C128.089 268.906 128.089 274.699 128.033 278.652C128.033 280.605 128.033 282.096 128.033 283.169C128.033 284.242 127.807 284.818 127.807 284.818Z" fill="#263238"/>
<path d="M63.141 287.664C62.9829 287.664 62.8474 287.031 62.8474 286.252C62.8474 285.473 62.9829 284.84 63.141 284.84C63.2991 284.84 63.4459 285.473 63.4459 286.252C63.4459 287.031 63.3104 287.664 63.141 287.664Z" fill="#263238"/>
<path d="M63.1411 299.996C62.8544 298.991 62.7549 297.942 62.8474 296.902C62.7542 295.865 62.8538 294.819 63.1411 293.819C63.4419 294.817 63.5454 295.864 63.446 296.902C63.5449 297.943 63.4414 298.994 63.1411 299.996Z" fill="#263238"/>
<path d="M63.1411 312.351C62.8544 311.346 62.7549 310.297 62.8474 309.257C62.7542 308.22 62.8538 307.174 63.1411 306.174C63.4419 307.172 63.5454 308.219 63.446 309.257C63.5449 310.298 63.4414 311.349 63.1411 312.351Z" fill="#263238"/>
<path d="M63.1411 324.706C62.8544 323.701 62.7549 322.652 62.8474 321.612C62.7542 320.575 62.8538 319.529 63.1411 318.528C63.4419 319.527 63.5454 320.574 63.446 321.612C63.5449 322.653 63.4414 323.704 63.1411 324.706Z" fill="#263238"/>
<path d="M63.1411 337.061C62.8544 336.056 62.7549 335.007 62.8474 333.966C62.7542 332.929 62.8538 331.884 63.1411 330.883C63.4419 331.881 63.5454 332.929 63.446 333.966C63.5449 335.008 63.4414 336.059 63.1411 337.061Z" fill="#263238"/>
<path d="M65.9644 346.062C65.0527 346.349 64.0923 346.449 63.141 346.355L62.8474 346.062V345C62.8474 344.661 62.8474 344.356 62.9152 344.097C62.9152 343.588 63.0394 343.272 63.1184 343.272C63.1975 343.272 63.2765 343.588 63.333 344.097C63.333 344.356 63.333 344.661 63.333 345V345.531V346.062C63.1975 345.926 63.6154 346.355 63.0281 345.768C64.0166 345.659 65.0171 345.759 65.9644 346.062Z" fill="#263238"/>
<path d="M77.0658 346.062C76.1695 346.348 75.224 346.448 74.2877 346.355C73.355 346.447 72.4134 346.347 71.5208 346.062C72.4134 345.776 73.355 345.676 74.2877 345.768C75.224 345.675 76.1695 345.775 77.0658 346.062Z" fill="#263238"/>
<path d="M88.1671 346.062C87.2708 346.348 86.3253 346.448 85.389 346.355C84.4526 346.448 83.5071 346.348 82.6108 346.062C83.5071 345.775 84.4526 345.675 85.389 345.768C86.3253 345.675 87.2708 345.775 88.1671 346.062Z" fill="#263238"/>
<path d="M99.2684 346.062C98.3721 346.348 97.4266 346.448 96.4902 346.355C95.5539 346.448 94.6084 346.348 93.7121 346.062C94.6084 345.775 95.5539 345.675 96.4902 345.768C97.4266 345.675 98.3721 345.775 99.2684 346.062Z" fill="#263238"/>
<path d="M110.359 346.062C108.531 346.453 106.641 346.453 104.814 346.062C106.641 345.67 108.531 345.67 110.359 346.062Z" fill="#263238"/>
<path d="M121.46 346.062C119.632 346.453 117.742 346.453 115.915 346.062C117.742 345.67 119.632 345.67 121.46 346.062Z" fill="#263238"/>
<path d="M132.561 346.062C130.73 346.453 128.836 346.453 127.005 346.062C128.836 345.67 130.73 345.67 132.561 346.062Z" fill="#263238"/>
<path d="M143.651 346.062C141.823 346.453 139.934 346.453 138.106 346.062C139.934 345.67 141.823 345.67 143.651 346.062Z" fill="#263238"/>
<path d="M154.753 346.062C152.925 346.453 151.035 346.453 149.208 346.062C151.035 345.67 152.925 345.67 154.753 346.062Z" fill="#263238"/>
<path d="M165.854 346.062C164.023 346.453 162.129 346.453 160.298 346.062C162.129 345.67 164.023 345.67 165.854 346.062Z" fill="#263238"/>
<path d="M176.944 346.062C175.116 346.453 173.226 346.453 171.399 346.062C173.226 345.67 175.116 345.67 176.944 346.062Z" fill="#263238"/>
<path d="M185.324 346.062C185.324 346.22 184.691 346.355 183.912 346.355C183.133 346.355 182.5 346.22 182.5 346.062C182.5 345.903 183.133 345.768 183.912 345.768C184.691 345.768 185.324 345.903 185.324 346.062Z" fill="#263238"/>
<path d="M186.645 26.0989H118.422V119.461H186.645V26.0989Z" fill="white"/>
<path d="M186.679 119.393C186.679 119.393 186.679 119.235 186.679 118.93C186.679 118.625 186.679 118.174 186.679 117.609C186.679 116.48 186.679 114.718 186.679 112.504C186.679 108.043 186.679 101.538 186.589 93.3056C186.589 76.8738 186.464 53.5757 186.385 26.0087L186.69 26.3136L118.478 26.3926L118.817 26.0538V119.416L118.546 119.145L168.09 119.246L181.879 119.314H185.504H186.769C186.769 119.314 186.374 119.314 185.572 119.314H181.992L168.259 119.393L118.569 119.574H118.286V119.292C118.286 93.0911 118.207 60.8034 118.162 25.9296V25.5908H118.512H186.724H187.04V25.907C187.04 53.5531 186.961 76.9303 186.927 93.4073C186.927 101.595 186.927 108.089 186.86 112.516C186.86 114.707 186.86 116.389 186.86 117.552C186.86 118.106 186.86 118.535 186.86 118.84C186.818 119.03 186.757 119.215 186.679 119.393Z" fill="#263238"/>
<path d="M160.128 44.8573C160.128 45.0493 152.708 45.1961 143.55 45.2074C134.391 45.2187 126.971 45.0719 126.971 44.8799C126.971 44.6879 134.391 44.5298 143.55 44.5298C152.708 44.5298 160.128 44.6653 160.128 44.8573Z" fill="#263238"/>
<path d="M178.062 52.9546C178.062 53.1466 166.622 53.3047 152.516 53.316C138.411 53.3273 126.971 53.1805 126.971 52.9885C126.971 52.7965 138.411 52.6384 152.516 52.6384C166.622 52.6384 178.062 52.7627 178.062 52.9546Z" fill="#263238"/>
<path d="M178.073 61.4246C178.073 61.6052 166.633 61.7634 152.528 61.7747C138.423 61.7859 126.982 61.6391 126.982 61.4584C126.982 61.2777 138.423 61.1083 152.528 61.097C166.633 61.0858 178.073 61.2326 178.073 61.4246Z" fill="#263238"/>
<path d="M178.073 69.8833C178.073 70.0752 166.645 70.2333 152.539 70.2446C138.434 70.2559 126.994 70.1091 126.994 69.9171C126.994 69.7251 138.423 69.567 152.539 69.5557C166.656 69.5445 178.073 69.7026 178.073 69.8833Z" fill="#263238"/>
<path d="M178.085 78.342C178.085 78.534 166.645 78.6921 152.539 78.7034C138.434 78.7146 126.994 78.5678 126.994 78.3871C126.994 78.2065 138.434 78.0371 152.539 78.0258C166.645 78.0145 178.085 78.1613 178.085 78.342Z" fill="#263238"/>
<path d="M178.085 86.8119C178.085 87.0039 166.656 87.162 152.551 87.1733C138.445 87.1846 127.005 87.0378 127.005 86.8458C127.005 86.6538 138.434 86.4957 152.551 86.4844C166.667 86.4731 178.085 86.6425 178.085 86.8119Z" fill="#263238"/>
<path d="M178.096 95.2707C178.096 95.4627 166.656 95.6208 152.551 95.6321C138.445 95.6434 127.005 95.4965 127.005 95.3158C127.005 95.1352 138.445 94.9658 152.551 94.9545C166.656 94.9432 178.096 95.09 178.096 95.2707Z" fill="#263238"/>
<path d="M154.47 103.752C154.47 103.944 148.327 104.102 140.749 104.102C133.171 104.102 127.016 103.967 127.016 103.775C127.016 103.583 133.16 103.425 140.749 103.425C148.338 103.425 154.47 103.583 154.47 103.752Z" fill="#263238"/>
<path d="M180.716 126.226C188.369 126.226 194.573 120.022 194.573 112.369C194.573 104.716 188.369 98.5117 180.716 98.5117C173.063 98.5117 166.859 104.716 166.859 112.369C166.859 120.022 173.063 126.226 180.716 126.226Z" fill="#1675FF"/>
<path d="M188.666 107.027C189.254 107.58 186.532 111.454 182.591 115.689C181.947 116.367 181.326 117.01 180.727 117.609L179.767 118.557L178.807 117.756C175.363 114.865 173.104 112.38 173.522 111.838C173.94 111.296 176.91 112.888 180.558 115.52L178.649 115.666C179.203 115.034 179.779 114.356 180.434 113.679C184.42 109.444 188.068 106.474 188.666 107.027Z" fill="#E0E0E0"/>
<path d="M147.367 124.554C146.975 122.693 146.975 120.77 147.367 118.908C147.758 120.77 147.758 122.693 147.367 124.554Z" fill="#263238"/>
<path d="M147.367 135.848C146.975 133.986 146.975 132.063 147.367 130.201C147.758 132.063 147.758 133.986 147.367 135.848Z" fill="#263238"/>
<path d="M147.367 147.141C146.975 145.279 146.975 143.356 147.367 141.494C147.758 143.356 147.758 145.279 147.367 147.141Z" fill="#263238"/>
<path d="M147.367 158.434C146.975 156.572 146.975 154.649 147.367 152.788C147.758 154.649 147.758 156.572 147.367 158.434Z" fill="#263238"/>
<path d="M147.367 169.728C146.975 167.866 146.975 165.943 147.367 164.081C147.758 165.943 147.758 167.866 147.367 169.728Z" fill="#263238"/>
<path d="M147.367 181.021C146.975 179.159 146.975 177.236 147.367 175.374C147.758 177.236 147.758 179.159 147.367 181.021Z" fill="#263238"/>
<path d="M147.367 192.314C146.975 190.452 146.975 188.529 147.367 186.668C147.758 188.529 147.758 190.452 147.367 192.314Z" fill="#263238"/>
<path d="M147.367 203.608C146.975 201.746 146.975 199.823 147.367 197.961C147.758 199.823 147.758 201.746 147.367 203.608Z" fill="#263238"/>
<path d="M152.799 209.446C151.887 209.732 150.927 209.832 149.976 209.74C149.095 209.761 148.214 209.701 147.344 209.559H147.22V209.48C147.22 209.356 147.288 209.288 147.322 209.288C147.356 209.288 147.401 209.356 147.435 209.48L147.322 209.378C148.19 209.225 149.072 209.161 149.953 209.186C150.91 209.08 151.878 209.168 152.799 209.446Z" fill="#263238"/>
<path d="M164.092 209.446C162.23 209.838 160.307 209.838 158.446 209.446C160.307 209.055 162.23 209.055 164.092 209.446Z" fill="#263238"/>
<path d="M175.385 209.446C173.524 209.838 171.601 209.838 169.739 209.446C171.601 209.055 173.524 209.055 175.385 209.446Z" fill="#263238"/>
<path d="M186.679 209.446C184.817 209.838 182.894 209.838 181.032 209.446C182.894 209.055 184.817 209.055 186.679 209.446Z" fill="#263238"/>
<path d="M197.972 209.446C196.11 209.838 194.187 209.838 192.326 209.446C194.187 209.055 196.11 209.055 197.972 209.446Z" fill="#263238"/>
<path d="M386.085 107.287C385.694 105.425 385.694 103.502 386.085 101.64C386.477 103.502 386.477 105.425 386.085 107.287Z" fill="#263238"/>
<path d="M386.085 118.58C385.694 116.718 385.694 114.795 386.085 112.933C386.477 114.795 386.477 116.718 386.085 118.58Z" fill="#263238"/>
<path d="M386.085 129.873C385.694 128.011 385.694 126.088 386.085 124.227C386.477 126.088 386.477 128.011 386.085 129.873Z" fill="#263238"/>
<path d="M386.085 141.155C385.694 139.293 385.694 137.371 386.085 135.509C386.477 137.371 386.477 139.293 386.085 141.155Z" fill="#263238"/>
<path d="M386.085 152.46C385.695 150.598 385.695 148.675 386.085 146.813C386.475 148.675 386.475 150.598 386.085 152.46Z" fill="#263238"/>
<path d="M386.085 163.753C385.694 161.891 385.694 159.968 386.085 158.107C386.477 159.968 386.477 161.891 386.085 163.753Z" fill="#263238"/>
<path d="M386.085 175.047C385.694 173.185 385.694 171.262 386.085 169.4C386.477 171.262 386.477 173.185 386.085 175.047Z" fill="#263238"/>
<path d="M386.085 186.34C385.694 184.478 385.694 182.555 386.085 180.693C386.477 182.555 386.477 184.478 386.085 186.34Z" fill="#263238"/>
<path d="M462.778 114.537H462.112H460.113H452.332L423.15 114.638L322.425 114.876H322.199L322.12 114.616C321.013 110.831 320.817 106.837 321.547 102.962C322.277 99.086 323.912 95.4377 326.32 92.3143C328.728 89.1909 331.84 86.6807 335.402 84.9885C338.964 83.2962 342.876 82.4699 346.818 82.5767L346.446 83.0623C345.826 80.8596 345.563 78.5721 345.666 76.2863C345.971 68.4939 350.398 60.9725 357.197 57.4942C360.494 55.7702 364.163 54.8792 367.883 54.8988C371.604 54.9185 375.263 55.8483 378.541 57.6071L378.022 57.7991C379.838 53.5853 382.509 49.7944 385.866 46.6666C389.224 43.5387 393.194 41.142 397.525 39.6281C405.837 36.6015 415.053 36.9968 422.303 40.7575C429.198 44.4035 434.618 50.3257 437.639 57.5168C440.415 63.8355 441.081 70.8809 439.536 77.6076L439.254 77.2914C443.232 76.8698 447.251 77.4563 450.943 78.9967C454.221 80.3241 457.173 82.3469 459.593 84.9257C460.7 86.0775 461.618 87.3961 462.315 88.8332C462.937 90.1631 463.425 91.5515 463.772 92.9778C464.358 95.4639 464.691 98.0027 464.766 100.556C464.889 104.073 464.582 107.593 463.851 111.036C463.659 111.926 463.417 112.804 463.128 113.667C462.925 114.254 462.812 114.537 462.812 114.537" fill="#1675FF"/>
<path d="M450.005 75.8573H445.658V49.7019C445.658 46.6798 444.457 43.7814 442.32 41.6444C440.183 39.5075 437.285 38.3069 434.263 38.3069C431.24 38.3069 428.342 39.5075 426.205 41.6444C424.068 43.7814 422.868 46.6798 422.868 49.7019V75.8573H418.52V49.7019C418.52 45.5266 420.178 41.5223 423.131 38.57C426.083 35.6176 430.087 33.959 434.263 33.959C438.438 33.959 442.442 35.6176 445.394 38.57C448.347 41.5223 450.005 45.5266 450.005 49.7019V75.8573Z" fill="#E0E0E0"/>
<path d="M451.959 64.2139H416.566C414.451 64.2139 412.737 65.9279 412.737 68.0423V88.0089C412.737 90.1233 414.451 91.8374 416.566 91.8374H451.959C454.073 91.8374 455.788 90.1233 455.788 88.0089V68.0423C455.788 65.9279 454.073 64.2139 451.959 64.2139Z" fill="#E0E0E0"/>
<path d="M434.262 78.0254C433.549 78.0277 432.851 77.818 432.257 77.423C431.663 77.028 431.199 76.4655 430.925 75.8067C430.651 75.148 430.579 74.4227 430.717 73.7228C430.856 73.0229 431.199 72.38 431.704 71.8755C432.208 71.371 432.851 71.0276 433.551 70.889C434.251 70.7503 434.976 70.8226 435.635 71.0967C436.294 71.3708 436.856 71.8343 437.251 72.4284C437.646 73.0226 437.856 73.7207 437.854 74.4342C437.854 75.3866 437.475 76.3001 436.802 76.9736C436.128 77.6471 435.215 78.0254 434.262 78.0254Z" fill="#455A64"/>
<path d="M435.245 75.8572H433.28V83.2543H435.245V75.8572Z" fill="#455A64"/>
<path d="M698.956 67.1728C702.193 64.1606 704.517 60.2977 705.662 56.0261C706.806 51.7546 706.724 47.2472 705.426 43.02C704.127 38.7927 701.665 35.0165 698.32 32.1238C694.976 29.231 690.884 27.3385 686.514 26.663C682.143 25.9876 677.671 26.5564 673.609 28.3044C669.547 30.0525 666.06 32.909 663.546 36.547C661.032 40.185 659.593 44.4574 659.394 48.8751C659.195 53.2927 660.245 57.6771 662.422 61.5261L657.622 66.0435L658.752 73.9488L651.332 71.9612L645.335 77.6078L646.464 85.5132L639.022 83.4239L633.895 88.201L634.595 93.0458L630.078 91.781L627.119 94.5478L626.667 101.922L637.656 104.689L673.309 71.4191C677.528 73.3071 682.211 73.9112 686.771 73.1561C691.332 72.401 695.57 70.3201 698.956 67.1728ZM695.478 38.2167C696.395 39.195 697.002 40.4239 697.221 41.7474C697.44 43.071 697.261 44.4298 696.707 45.6515C696.153 46.8733 695.249 47.9031 694.109 48.6105C692.969 49.3178 691.644 49.6709 690.304 49.6249C688.963 49.579 687.666 49.1361 686.577 48.3523C685.488 47.5686 684.657 46.4792 684.188 45.2224C683.719 43.9655 683.633 42.5977 683.942 41.2922C684.251 39.9868 684.941 38.8024 685.923 37.8892C687.236 36.6697 688.978 36.0195 690.768 36.0809C692.558 36.1423 694.252 36.9102 695.478 38.2167Z" fill="#263238"/>
<path d="M695.477 38.2166C695.477 38.2166 695.037 37.7988 694.134 37.2454C692.86 36.4733 691.366 36.1474 689.887 36.3194C688.686 36.4473 687.543 36.9073 686.589 37.6479C685.634 38.3885 684.904 39.3805 684.482 40.5125C684.059 41.6445 683.96 42.8719 684.196 44.057C684.432 45.2421 684.993 46.3381 685.817 47.2222C686.64 48.1063 687.694 48.7434 688.859 49.0622C690.025 49.3811 691.256 49.3689 692.415 49.0272C693.574 48.6855 694.615 48.0277 695.421 47.1276C696.228 46.2275 696.767 45.1206 696.979 43.9311C697.25 42.4626 697.027 40.9461 696.347 39.617C695.861 38.6797 695.432 38.2505 695.477 38.2166C695.523 38.1828 695.602 38.2957 695.805 38.5103C696.093 38.8142 696.343 39.1516 696.55 39.5154C697.35 40.8765 697.65 42.4742 697.397 44.0327C697.245 44.9478 696.911 45.8232 696.416 46.6077C695.921 47.3922 695.274 48.0699 694.514 48.6011C693.753 49.1323 692.894 49.5063 691.988 49.7011C691.081 49.896 690.144 49.9078 689.232 49.7358C687.762 49.463 686.418 48.7235 685.401 47.627C684.384 46.5306 683.747 45.1355 683.586 43.6487C683.476 42.7247 683.553 41.7881 683.812 40.8944C684.071 40.0007 684.507 39.168 685.093 38.4456C685.68 37.7233 686.405 37.1259 687.227 36.6889C688.048 36.2519 688.949 35.9842 689.876 35.9015C691.435 35.7501 692.997 36.1497 694.292 37.0308C694.64 37.2622 694.958 37.5353 695.24 37.844C695.339 37.9547 695.419 38.0806 695.477 38.2166Z" fill="#263238"/>
<path d="M698.956 67.1727C698.852 67.2906 698.738 67.4001 698.617 67.5002L697.578 68.4262C696.182 69.5548 694.667 70.528 693.061 71.3286C689.968 72.8077 686.592 73.5988 683.165 73.6475C679.737 73.6963 676.34 73.0015 673.207 71.611H673.399L637.814 104.938L637.701 105.028H637.565L626.577 102.272L626.351 102.216V101.99C626.486 99.7313 626.633 97.1791 626.791 94.6268V94.5138L626.882 94.4348L629.874 91.634L629.987 91.5324H630.145L634.663 92.8085L634.301 93.1248C634.087 91.6115 633.85 89.9513 633.601 88.2799V88.1218L633.703 88.0202L638.864 83.2092L638.977 83.0963H639.135L646.577 85.1855L646.205 85.5017C645.843 82.9833 645.448 80.2729 645.075 77.5964V77.4496L645.177 77.3367L646.769 75.8572L651.174 71.7465L651.298 71.6335H651.456L658.898 73.7228L658.526 74.039C658.142 71.3663 657.765 68.7311 657.396 66.1337V65.9869L657.509 65.8852L662.298 61.3679L662.241 61.718C660.4 58.4326 659.352 54.7627 659.181 51.0006C659.096 49.1732 659.229 47.3421 659.576 45.5459C659.896 43.7812 660.423 42.0603 661.146 40.4188C662.943 36.2489 665.9 32.6828 669.665 30.1441C673.43 27.6055 677.844 26.2009 682.384 26.0975C686.923 25.994 691.397 27.1959 695.274 29.5604C699.15 31.925 702.267 35.3527 704.252 39.4362C706.119 43.2954 706.9 47.5898 706.511 51.8589C706.254 55.0189 705.355 58.0932 703.868 60.8936L703.428 61.7293L702.954 62.4746C702.626 62.949 702.366 63.4233 702.05 63.8073C701.418 64.5752 700.921 65.2641 700.446 65.7497L699.317 66.879L698.933 67.2291L699.283 66.8339L700.334 65.7045C700.797 65.2189 701.271 64.5752 701.881 63.7621C702.186 63.3668 702.445 62.8925 702.75 62.4182L703.225 61.6728L703.643 60.8371C705.318 57.565 706.207 53.947 706.238 50.271C706.269 46.595 705.443 42.9624 703.823 39.6621C701.341 34.6692 697.153 30.7298 692.018 28.5569C686.883 26.3839 681.139 26.1209 675.827 27.8154C672.675 28.8213 669.772 30.4865 667.313 32.7004C664.854 34.9143 662.894 37.6262 661.564 40.6559C660.861 42.258 660.349 43.9372 660.039 45.6589C659.699 47.4102 659.574 49.1964 659.666 50.978C659.83 54.6554 660.859 58.2423 662.67 61.447L662.772 61.6389L662.614 61.797L657.825 66.3144L657.916 66.0659C658.292 68.686 658.669 71.3211 659.045 73.9713L659.113 74.4117L658.684 74.2988L651.241 72.2095L651.524 72.1417L647.119 76.2525L645.527 77.7319L645.617 77.4835C646.013 80.2052 646.397 82.9156 646.747 85.3888L646.814 85.8293L646.385 85.7163L638.943 83.6271L639.225 83.5593L634.064 88.3703L634.155 88.1105C634.392 89.7819 634.629 91.442 634.855 92.9553V93.3958L634.437 93.2829L629.92 92.0067L630.191 91.9389L627.198 94.7397L627.288 94.5477C627.13 97.1 626.972 99.6184 626.825 101.911L626.622 101.629L637.61 104.407H637.362L673.071 71.2157L673.151 71.1366H673.263C676.354 72.5221 679.706 73.2271 683.092 73.2037C686.479 73.1803 689.82 72.4291 692.891 71.0011C694.511 70.2321 696.044 69.2932 697.465 68.2004C697.928 67.8277 698.278 67.5341 698.527 67.3195L698.956 67.1727Z" fill="#263238"/>
<path d="M698.165 64.5075C701.403 61.4954 703.727 57.6324 704.871 53.3608C706.015 49.0893 705.934 44.5819 704.635 40.3547C703.337 36.1274 700.874 32.3513 697.53 29.4585C694.185 26.5657 690.093 24.6732 685.723 23.9978C681.353 23.3223 676.881 23.8911 672.819 25.6391C668.757 27.3872 665.269 30.2437 662.755 33.8817C660.241 37.5197 658.802 41.7921 658.604 46.2098C658.405 50.6274 659.454 55.0118 661.631 58.8608L656.843 63.3782L657.972 71.2835L650.53 69.1942L644.533 74.8409L645.663 82.7462L638.22 80.657L633.104 85.5131L633.805 90.3579L629.287 89.0931L626.295 91.8938L625.843 99.2571L636.831 102.024L672.484 68.7651C676.709 70.6589 681.399 71.2651 685.967 70.5078C690.534 69.7506 694.777 67.6634 698.165 64.5075ZM694.687 35.5401C695.606 36.5179 696.215 37.7468 696.435 39.0708C696.655 40.3949 696.477 41.7545 695.923 42.9772C695.369 44.1999 694.465 45.2306 693.325 45.9386C692.184 46.6466 690.86 47 689.518 46.9539C688.177 46.9079 686.879 46.4645 685.79 45.68C684.701 44.8955 683.869 43.8052 683.401 42.5474C682.932 41.2896 682.848 39.921 683.158 38.6152C683.469 37.3093 684.16 36.1251 685.144 35.2126C686.456 33.9966 688.195 33.3486 689.983 33.4099C691.771 33.4713 693.462 34.237 694.687 35.5401Z" fill="#E0E0E0"/>
<path d="M694.687 35.54C694.687 35.54 694.246 35.1334 693.343 34.5801C692.072 33.8032 690.577 33.4732 689.097 33.6427C687.896 33.7727 686.755 34.2344 685.802 34.9762C684.849 35.7179 684.121 36.7104 683.7 37.8424C683.279 38.9745 683.181 40.2014 683.418 41.3857C683.655 42.5701 684.217 43.6651 685.041 44.5481C685.865 45.4311 686.919 46.0673 688.084 46.3853C689.249 46.7033 690.48 46.6907 691.638 46.3488C692.797 46.0069 693.837 45.3492 694.643 44.4494C695.448 43.5497 695.988 42.4434 696.2 41.2544C696.472 39.7885 696.246 38.2737 695.556 36.9516C695.071 36.0143 694.642 35.5852 694.687 35.54C694.732 35.4948 694.811 35.6303 695.014 35.8336C695.302 36.1375 695.553 36.475 695.76 36.8387C696.56 38.1998 696.859 39.7976 696.607 41.3561C696.458 42.2748 696.128 43.1547 695.635 43.944C695.142 44.7333 694.496 45.4162 693.735 45.9527C692.975 46.4892 692.115 46.8684 691.206 47.0681C690.297 47.2678 689.357 47.2839 688.442 47.1157C686.972 46.8371 685.63 46.0944 684.614 44.9967C683.597 43.899 682.96 42.5042 682.795 41.0172C682.628 39.6374 682.884 38.2394 683.529 37.0081C684.065 35.9672 684.856 35.0787 685.827 34.4252C686.798 33.7716 687.919 33.3743 689.085 33.27C690.644 33.1253 692.204 33.5243 693.501 34.3994C693.852 34.6273 694.171 34.9007 694.45 35.2125C694.623 35.4233 694.702 35.5325 694.687 35.54Z" fill="#263238"/>
<path d="M698.165 64.5074C698.058 64.6192 697.945 64.7248 697.826 64.8236L696.799 65.7497C695.403 66.8784 693.888 67.8517 692.281 68.6521C689.189 70.1311 685.813 70.9223 682.386 70.971C678.958 71.0197 675.561 70.3249 672.428 68.9344H672.62L636.989 102.227L636.888 102.329H636.741L625.752 99.5732H625.527V99.3474C625.662 97.0887 625.809 94.5251 625.967 91.9728V91.8599L626.046 91.7921C626.972 90.9225 628 89.9513 629.039 88.9914L629.163 88.8784H629.31L633.827 90.1433L633.466 90.4595C633.24 88.9462 633.003 87.2861 632.766 85.6147V85.4679L632.867 85.3549L638.028 80.5553L638.141 80.4423H638.299L645.742 82.5203L645.369 82.8478C645.007 80.3181 644.612 77.619 644.24 74.9425V74.7957L644.353 74.694L645.934 73.2033L650.338 69.0925L650.462 68.9796H650.62L658.063 71.0689L657.69 71.3964C657.306 68.7085 656.922 66.0659 656.561 63.491V63.3442L656.674 63.2426L661.462 58.7252V59.0753C659.612 55.7929 658.56 52.1218 658.39 48.358C658.239 44.7313 658.911 41.1175 660.355 37.7874C662.153 33.6176 665.11 30.0515 668.874 27.5128C672.639 24.9741 677.054 23.5696 681.593 23.4661C686.133 23.3627 690.607 24.5646 694.483 26.9291C698.36 29.2936 701.476 32.7213 703.462 36.8049C705.338 40.6375 706.139 44.9078 705.777 49.1598C705.522 52.3201 704.622 55.3947 703.134 58.1945L702.705 59.0302L702.22 59.7755C701.892 60.2611 701.632 60.7242 701.327 61.1194C700.684 61.8874 700.198 62.565 699.724 63.0506L698.594 64.1799C698.346 64.4284 698.21 64.5413 698.21 64.5413C698.21 64.5413 698.323 64.3945 698.561 64.146L699.611 63.0167C700.074 62.5311 700.548 61.8874 701.169 61.063C701.463 60.6677 701.723 60.1934 702.028 59.7191L702.502 58.9737L702.931 58.138C704.255 55.3699 705.02 52.3681 705.184 49.3042C705.347 46.2402 704.906 43.174 703.884 40.2807C702.863 37.3874 701.282 34.7236 699.231 32.4414C697.18 30.1592 694.699 28.3033 691.931 26.9797C689.163 25.6561 686.161 24.8906 683.097 24.727C680.034 24.5635 676.967 25.005 674.074 26.0264C671.181 27.0479 668.517 28.6292 666.235 30.68C663.953 32.7309 662.097 35.2113 660.773 37.9794C659.367 41.236 658.718 44.7691 658.876 48.3128C659.039 51.9866 660.069 55.5698 661.88 58.7704L661.993 58.9737L661.823 59.1205L657.035 63.6378L657.125 63.3894C657.494 66.0094 657.871 68.6446 658.255 71.2947L658.322 71.7465L657.893 71.6222L650.451 69.533L650.733 69.4652L646.329 73.576L644.736 75.0667L644.827 74.8069C645.222 77.5286 645.606 80.239 645.956 82.7123L646.024 83.164L645.595 83.0398L638.175 80.9957L638.457 80.9279L633.296 85.7389L633.387 85.4904C633.624 87.1619 633.872 88.8784 634.087 90.3353L634.143 90.7644L633.725 90.6515L629.208 89.3753L629.479 89.3076L626.475 92.1083L626.566 91.9163C626.407 94.4686 626.249 96.9871 626.102 99.2796L625.899 98.9973L636.888 101.775L636.639 101.843L672.292 68.6408L672.383 68.5617H672.484C676.027 70.1466 679.905 70.8406 683.778 70.5832C686.654 70.3697 689.469 69.643 692.089 68.4375C693.685 67.6566 695.198 66.7183 696.607 65.6368L697.668 64.7446L698.165 64.5074Z" fill="#263238"/>
<path d="M696.008 62.6665C697.167 61.4248 698.225 60.0916 699.17 58.68C700.246 57.0059 701.061 55.1781 701.587 53.2592C702.312 50.7256 702.542 48.0761 702.265 45.4555C701.943 42.2829 700.879 39.2305 699.159 36.545C697.185 33.4613 694.425 30.9588 691.163 29.2947C689.414 28.3891 687.536 27.7568 685.596 27.42C684.595 27.2402 683.584 27.1233 682.569 27.0699C681.531 27.0553 680.494 27.1081 679.463 27.228C675.141 27.726 671.093 29.5976 667.913 32.5676C664.734 35.5376 662.591 39.4493 661.801 43.7276C661.61 44.7462 661.486 45.7761 661.428 46.8107C661.411 47.8289 661.456 48.8472 661.563 49.8599C661.778 51.8055 662.28 53.7085 663.054 55.5066C664.484 58.8777 666.788 61.8058 669.728 63.9879C672.071 65.7143 674.752 66.9257 677.595 67.5427C680.439 68.1597 683.381 68.1683 686.228 67.5678C688.18 67.1771 690.061 66.4916 691.807 65.535C693.28 64.685 694.684 63.7222 696.008 62.6552C696.008 62.6552 695.929 62.7456 695.771 62.8924L695.037 63.5474C694.645 63.9178 694.221 64.254 693.772 64.5525C693.18 64.9689 692.561 65.3461 691.92 65.6819C690.159 66.6853 688.255 67.4128 686.273 67.8389C683.373 68.482 680.368 68.5015 677.46 67.896C674.551 67.2905 671.804 66.0738 669.401 64.3266C666.381 62.1 664.008 59.1106 662.523 55.6647C661.725 53.8295 661.211 51.8836 660.999 49.8938C660.876 48.8596 660.827 47.818 660.852 46.7768C660.897 45.7112 661.022 44.6505 661.225 43.6034C662.04 39.2061 664.246 35.1869 667.517 32.1373C670.788 29.0877 674.952 27.1689 679.396 26.6634C680.452 26.5412 681.517 26.4922 682.58 26.5166C683.622 26.5681 684.66 26.6888 685.686 26.878C687.679 27.2345 689.606 27.8933 691.4 28.8317C694.736 30.5478 697.551 33.1253 699.554 36.2966C701.303 39.0477 702.371 42.1756 702.671 45.4216C702.921 48.0823 702.656 50.7662 701.892 53.3269C701.329 55.2647 700.472 57.1044 699.351 58.7816C698.959 59.401 698.521 59.9899 698.041 60.5434C697.698 60.9524 697.321 61.3303 696.912 61.6727L696.2 62.3616C696.098 62.5988 696.008 62.6778 696.008 62.6665Z" fill="#263238"/>
<path d="M695.048 45.9863C695.048 45.9863 695.545 45.4781 696.178 44.4278C696.953 43.1733 697.357 41.7254 697.345 40.2508C697.333 38.7762 696.905 37.3351 696.11 36.0933C695.366 34.9384 694.324 34.0058 693.094 33.3942C691.752 32.7034 690.233 32.4357 688.735 32.6263C687.121 32.8111 685.608 33.5086 684.419 34.6163C683.23 35.724 682.427 37.1837 682.129 38.7811C681.839 40.2663 682 41.8042 682.592 43.1968C683.015 44.1862 683.639 45.0772 684.424 45.8136C685.208 46.55 686.137 47.1159 687.151 47.4756C688.166 47.8353 689.244 47.9809 690.317 47.9034C691.39 47.8259 692.436 47.5269 693.388 47.0253C694.517 46.438 694.98 45.8959 695.026 45.9863C695.071 46.0766 694.924 46.1331 694.676 46.359C694.335 46.6925 693.956 46.9844 693.546 47.2286C692.205 48.001 690.669 48.3684 689.124 48.2862C687.579 48.204 686.09 47.6758 684.839 46.7655C683.59 45.8598 682.623 44.6181 682.051 43.1848C681.479 41.7514 681.326 40.1852 681.609 38.6682C681.927 36.9494 682.79 35.3784 684.069 34.1868C685.348 32.9952 686.976 32.2463 688.713 32.0503C689.79 31.9205 690.883 32.0086 691.925 32.3094C692.968 32.6102 693.94 33.1175 694.783 33.8012C695.625 34.4849 696.322 35.3311 696.831 36.2894C697.341 37.2477 697.652 38.2986 697.747 39.3797C697.917 41.2062 697.446 43.0347 696.415 44.552C696.141 44.9619 695.822 45.3406 695.466 45.6814C695.343 45.8031 695.202 45.9059 695.048 45.9863Z" fill="#263238"/>
<path d="M633.895 100.725C633.782 100.612 641.8 92.9441 651.817 83.6045C661.835 74.2649 670.045 66.7774 670.158 66.9017C670.271 67.0259 662.253 74.6828 652.224 84.0337C642.196 93.3845 634.042 100.849 633.895 100.725Z" fill="#263238"/>
<path d="M599.236 202.749C597.374 203.141 595.451 203.141 593.589 202.749C595.451 202.358 597.374 202.358 599.236 202.749Z" fill="#263238"/>
<path d="M610.529 202.749C608.667 203.141 606.744 203.141 604.882 202.749C606.744 202.358 608.667 202.358 610.529 202.749Z" fill="#263238"/>
<path d="M621.822 202.749C619.96 203.141 618.037 203.141 616.176 202.749C618.037 202.358 619.96 202.358 621.822 202.749Z" fill="#263238"/>
<path d="M633.116 202.749C631.254 203.141 629.331 203.141 627.469 202.749C629.331 202.358 631.254 202.358 633.116 202.749Z" fill="#263238"/>
<path d="M644.409 202.749C642.547 203.141 640.624 203.141 638.762 202.749C640.624 202.358 642.547 202.358 644.409 202.749Z" fill="#263238"/>
<path d="M655.702 202.749C653.84 203.141 651.917 203.141 650.056 202.749C651.917 202.358 653.84 202.358 655.702 202.749Z" fill="#263238"/>
<path d="M665.29 201.044C665.403 201.044 665.516 201.744 665.561 202.749V202.964H665.279H664.15C663.198 203.056 662.238 202.956 661.326 202.67C662.238 202.384 663.198 202.284 664.15 202.376H665.279L665.008 202.647C665.065 201.744 665.166 201.044 665.29 201.044Z" fill="#263238"/>
<path d="M665.29 189.75C665.682 191.612 665.682 193.535 665.29 195.397C664.899 193.535 664.899 191.612 665.29 189.75Z" fill="#263238"/>
<path d="M665.29 178.457C665.682 180.319 665.682 182.242 665.29 184.104C664.899 182.242 664.899 180.319 665.29 178.457Z" fill="#263238"/>
<path d="M665.29 167.164C665.682 169.026 665.682 170.949 665.29 172.81C664.899 170.949 664.899 169.026 665.29 167.164Z" fill="#263238"/>
<path d="M665.29 155.87C665.682 157.732 665.682 159.655 665.29 161.517C664.899 159.655 664.899 157.732 665.29 155.87Z" fill="#263238"/>
<path d="M665.29 144.577C665.682 146.439 665.682 148.362 665.29 150.224C664.899 148.362 664.899 146.439 665.29 144.577Z" fill="#263238"/>
<path d="M665.29 133.284C665.682 135.146 665.682 137.069 665.29 138.93C664.899 137.069 664.899 135.146 665.29 133.284Z" fill="#263238"/>
<path d="M665.29 121.99C665.682 123.852 665.682 125.775 665.29 127.637C664.899 125.775 664.899 123.852 665.29 121.99Z" fill="#263238"/>
<path d="M665.29 110.697C665.682 112.559 665.682 114.482 665.29 116.344C664.899 114.482 664.899 112.559 665.29 110.697Z" fill="#263238"/>
<path d="M665.29 99.4038C665.682 101.266 665.682 103.189 665.29 105.05C664.899 103.189 664.899 101.266 665.29 99.4038Z" fill="#263238"/>
<path d="M665.29 88.1106C665.682 89.9725 665.682 91.8954 665.29 93.7573C664.899 91.8954 664.899 89.9725 665.29 88.1106Z" fill="#263238"/>
<path d="M580.613 315.31C578.751 315.701 576.828 315.701 574.966 315.31C576.828 314.918 578.751 314.918 580.613 315.31Z" fill="#263238"/>
<path d="M591.906 315.31C590.044 315.701 588.121 315.701 586.26 315.31C588.121 314.918 590.044 314.918 591.906 315.31Z" fill="#263238"/>
<path d="M603.2 315.31C601.338 315.701 599.415 315.701 597.553 315.31C599.415 314.918 601.338 314.918 603.2 315.31Z" fill="#263238"/>
<path d="M614.493 315.31C612.631 315.701 610.708 315.701 608.846 315.31C610.708 314.918 612.631 314.918 614.493 315.31Z" fill="#263238"/>
<path d="M625.786 315.31C623.924 315.701 622.001 315.701 620.14 315.31C622.001 314.918 623.924 314.918 625.786 315.31Z" fill="#263238"/>
<path d="M637.08 315.31C635.218 315.701 633.295 315.701 631.433 315.31C633.295 314.918 635.218 314.918 637.08 315.31Z" fill="#263238"/>
<path d="M648.373 315.31C646.511 315.701 644.588 315.701 642.726 315.31C644.588 314.918 646.511 314.918 648.373 315.31Z" fill="#263238"/>
<path d="M659.666 315.31C657.804 315.701 655.881 315.701 654.02 315.31C655.881 314.918 657.804 314.918 659.666 315.31Z" fill="#263238"/>
<path d="M670.96 315.31C669.098 315.701 667.175 315.701 665.313 315.31C667.175 314.918 669.098 314.918 670.96 315.31Z" fill="#263238"/>
<path d="M682.253 315.31C680.391 315.701 678.468 315.701 676.606 315.31C678.468 314.918 680.391 314.918 682.253 315.31Z" fill="#263238"/>
<path d="M692.496 314.26C692.598 314.26 692.665 314.666 692.722 315.321V315.525H692.473C691.999 315.525 691.344 315.581 690.712 315.581C689.76 315.68 688.799 315.58 687.888 315.287C688.8 315.001 689.76 314.901 690.712 314.994C691.389 314.994 691.999 314.994 692.473 315.061L692.248 315.287C692.315 314.666 692.406 314.26 692.496 314.26Z" fill="#263238"/>
<path d="M692.62 302.966C692.905 303.878 692.997 304.84 692.891 305.79C692.976 306.743 692.864 307.704 692.564 308.613C692.286 307.699 692.197 306.739 692.304 305.79C692.219 304.837 692.326 303.877 692.62 302.966Z" fill="#263238"/>
<path d="M692.722 291.673C693 292.586 693.092 293.547 692.993 294.496C693.078 295.45 692.966 296.411 692.665 297.32C692.387 296.406 692.299 295.445 692.406 294.496C692.32 293.544 692.428 292.583 692.722 291.673Z" fill="#263238"/>
<path d="M692.835 280.38C693.113 281.293 693.205 282.253 693.106 283.203C693.184 284.156 693.073 285.116 692.778 286.026C692.5 285.113 692.408 284.153 692.507 283.203C692.429 282.249 692.54 281.29 692.835 280.38Z" fill="#263238"/>
<path d="M655.465 244.986L657.543 283.146C657.575 283.803 657.858 284.422 658.333 284.876C658.807 285.329 659.439 285.584 660.096 285.586L728.77 286.094C729.454 286.097 730.112 285.829 730.598 285.349C731.085 284.868 731.362 284.214 731.368 283.53L731.582 253.829C731.585 253.489 731.521 253.152 731.393 252.837C731.265 252.522 731.076 252.235 730.836 251.994C730.597 251.752 730.312 251.56 729.998 251.43C729.684 251.299 729.347 251.231 729.007 251.231H686.77C686.088 251.23 685.434 250.958 684.952 250.475L677.668 243.191C677.431 242.952 677.15 242.762 676.84 242.632C676.53 242.502 676.197 242.435 675.861 242.434L658.051 242.298C657.703 242.298 657.358 242.368 657.038 242.505C656.717 242.641 656.427 242.841 656.186 243.092C655.944 243.343 655.756 243.64 655.632 243.965C655.508 244.291 655.452 244.638 655.465 244.986Z" fill="#1675FF"/>
<path d="M731.631 246.742L656.589 246.192L656.26 291.026L731.303 291.576L731.631 246.742Z" fill="#F5F5F5"/>
<path d="M650.598 250.17L655.985 296.969C656.027 297.374 656.218 297.748 656.52 298.019C656.823 298.291 657.216 298.44 657.622 298.438L730.746 298.98C731.165 298.984 731.569 298.829 731.878 298.545C732.186 298.262 732.375 297.873 732.407 297.455L736.438 250.723C736.457 250.495 736.428 250.266 736.354 250.049C736.28 249.832 736.161 249.634 736.006 249.465C735.852 249.296 735.664 249.162 735.454 249.069C735.245 248.977 735.018 248.928 734.789 248.928L652.258 248.329C652.024 248.328 651.792 248.376 651.578 248.47C651.364 248.565 651.172 248.704 651.015 248.877C650.858 249.051 650.74 249.256 650.668 249.479C650.596 249.702 650.572 249.937 650.598 250.17Z" fill="#1675FF"/>
<path d="M589.309 177.407H211.332C202.245 177.407 194.878 184.774 194.878 193.861V432.67C194.878 441.758 202.245 449.125 211.332 449.125H589.309C598.396 449.125 605.763 441.758 605.763 432.67V193.861C605.763 184.774 598.396 177.407 589.309 177.407Z" fill="#263238"/>
<path d="M177.644 429.034H622.861V432.704C622.861 438.035 620.743 443.149 616.973 446.918C613.204 450.688 608.09 452.806 602.759 452.806H197.803C192.471 452.806 187.358 450.688 183.588 446.918C179.819 443.149 177.701 438.035 177.701 432.704V429.034H177.644Z" fill="#263238"/>
<path d="M593.589 188.203H205.911V417.661H593.589V188.203Z" fill="#455A64"/>
<path d="M359.817 429.034L365.339 437.82H443.071L448.21 429.034H359.817Z" fill="#455A64"/>
<path d="M582.713 195.973H217.589C215.549 195.973 213.896 197.627 213.896 199.666V413.234C213.896 415.274 215.549 416.927 217.589 416.927H582.713C584.753 416.927 586.406 415.274 586.406 413.234V199.666C586.406 197.627 584.753 195.973 582.713 195.973Z" fill="#EBEBEB"/>
<path d="M586.406 212.168H213.896V416.939H586.406V212.168Z" fill="#FAFAFA"/>
<path d="M244.444 204.511C244.444 205.101 244.269 205.678 243.941 206.169C243.613 206.659 243.147 207.041 242.601 207.267C242.056 207.492 241.456 207.55 240.877 207.434C240.298 207.318 239.767 207.033 239.351 206.615C238.934 206.197 238.651 205.665 238.537 205.086C238.423 204.507 238.484 203.907 238.711 203.362C238.939 202.818 239.323 202.353 239.815 202.027C240.306 201.7 240.884 201.527 241.474 201.53C241.865 201.53 242.252 201.607 242.613 201.757C242.974 201.907 243.302 202.126 243.578 202.403C243.854 202.68 244.073 203.009 244.221 203.371C244.37 203.733 244.446 204.12 244.444 204.511Z" fill="#263238"/>
<path d="M226.42 204.511C226.42 205.101 226.245 205.677 225.918 206.167C225.59 206.658 225.124 207.04 224.58 207.265C224.035 207.491 223.435 207.55 222.857 207.435C222.279 207.32 221.747 207.036 221.33 206.619C220.914 206.202 220.63 205.671 220.515 205.093C220.399 204.514 220.459 203.915 220.684 203.37C220.91 202.825 221.292 202.36 221.782 202.032C222.273 201.704 222.849 201.53 223.439 201.53C224.229 201.53 224.988 201.844 225.547 202.403C226.106 202.962 226.42 203.72 226.42 204.511Z" fill="#263238"/>
<path d="M235.071 204.511C235.071 205.101 234.896 205.678 234.567 206.169C234.239 206.659 233.773 207.041 233.228 207.267C232.682 207.492 232.082 207.55 231.503 207.434C230.925 207.318 230.394 207.033 229.977 206.615C229.561 206.197 229.277 205.665 229.164 205.086C229.05 204.507 229.111 203.907 229.338 203.362C229.565 202.818 229.949 202.353 230.441 202.027C230.933 201.7 231.51 201.527 232.101 201.53C232.492 201.53 232.879 201.607 233.24 201.757C233.601 201.907 233.929 202.126 234.205 202.403C234.481 202.68 234.699 203.009 234.848 203.371C234.996 203.733 235.072 204.12 235.071 204.511Z" fill="#263238"/>
<path d="M602.274 429.034C602.274 429.181 511.08 429.305 398.61 429.305C286.139 429.305 194.912 429.181 194.912 429.034C194.912 428.887 286.094 428.763 398.61 428.763C511.125 428.763 602.274 428.887 602.274 429.034Z" fill="#455A64"/>
<path d="M324.717 315.321H239.712V321.013H324.717V315.321Z" fill="#E0E0E0"/>
<path d="M434.511 236.37H349.506V242.061H434.511V236.37Z" fill="#E0E0E0"/>
<path d="M560.94 257.545C560.94 257.691 513.609 257.816 455.223 257.816C396.836 257.816 349.506 257.691 349.506 257.545C349.506 257.398 396.836 257.285 455.223 257.285C513.609 257.285 560.94 257.398 560.94 257.545Z" fill="#E0E0E0"/>
<path d="M560.94 269.967C560.94 270.114 513.609 270.227 455.223 270.227C396.836 270.227 349.506 270.114 349.506 269.967C349.506 269.82 396.836 269.696 455.223 269.696C513.609 269.696 560.94 269.82 560.94 269.967Z" fill="#E0E0E0"/>
<path d="M560.94 282.379C560.94 282.525 513.609 282.65 455.223 282.65C396.836 282.65 349.506 282.525 349.506 282.379C349.506 282.232 396.836 282.119 455.223 282.119C513.609 282.119 560.94 282.232 560.94 282.379Z" fill="#E0E0E0"/>
<path d="M560.94 294.801C560.94 294.948 513.609 295.061 455.223 295.061C396.836 295.061 349.506 294.948 349.506 294.801C349.506 294.654 396.836 294.53 455.223 294.53C513.609 294.53 560.94 294.654 560.94 294.801Z" fill="#E0E0E0"/>
<path d="M560.94 307.213C560.94 307.359 513.609 307.484 455.223 307.484C396.836 307.484 349.506 307.359 349.506 307.213C349.506 307.066 396.836 306.953 455.223 306.953C513.609 306.953 560.94 307.066 560.94 307.213Z" fill="#E0E0E0"/>
<path d="M432.038 319.635C432.038 319.782 413.562 319.895 390.772 319.895C367.982 319.895 349.506 319.782 349.506 319.635C349.506 319.488 367.982 319.364 390.772 319.364C413.562 319.364 432.038 319.488 432.038 319.635Z" fill="#E0E0E0"/>
<path d="M559.359 343.724C559.359 343.871 528.245 343.995 489.882 343.995C451.519 343.995 420.394 343.871 420.394 343.724C420.394 343.577 451.496 343.464 489.882 343.464C528.268 343.464 559.359 343.577 559.359 343.724Z" fill="#E0E0E0"/>
<path d="M559.359 356.914C559.359 357.061 528.245 357.174 489.882 357.174C451.519 357.174 420.394 357.061 420.394 356.914C420.394 356.768 451.496 356.643 489.882 356.643C528.268 356.643 559.359 356.768 559.359 356.914Z" fill="#E0E0E0"/>
<path d="M559.359 370.105C559.359 370.252 528.246 370.365 489.882 370.365C451.519 370.365 420.451 370.241 420.451 370.105C420.451 369.97 451.553 369.834 489.939 369.834C528.325 369.834 559.359 369.947 559.359 370.105Z" fill="#E0E0E0"/>
<path d="M559.359 383.273C559.359 383.42 528.245 383.533 489.882 383.533C451.519 383.533 420.394 383.42 420.394 383.273C420.394 383.126 451.496 383.002 489.882 383.002C528.268 383.002 559.359 383.126 559.359 383.273Z" fill="#E0E0E0"/>
<path d="M324.932 342.47C324.932 342.617 306.388 342.73 283.508 342.73C260.628 342.73 242.084 342.617 242.084 342.47C242.084 342.324 260.628 342.199 283.508 342.199C306.388 342.199 324.932 342.324 324.932 342.47Z" fill="#E0E0E0"/>
<path d="M324.932 352.815C324.932 352.962 306.388 353.086 283.508 353.086C260.628 353.086 242.084 352.962 242.084 352.815C242.084 352.668 260.628 352.555 283.508 352.555C306.388 352.555 324.932 352.668 324.932 352.815Z" fill="#E0E0E0"/>
<path d="M324.932 363.171C324.932 363.318 306.388 363.442 283.508 363.442C260.628 363.442 242.084 363.318 242.084 363.171C242.084 363.024 260.628 362.9 283.508 362.9C306.388 362.9 324.932 363.024 324.932 363.171Z" fill="#E0E0E0"/>
<path d="M324.932 373.493C324.932 373.64 306.388 373.753 283.508 373.753C260.628 373.753 242.084 373.64 242.084 373.493C242.084 373.346 260.628 373.222 283.508 373.222C306.388 373.222 324.932 373.38 324.932 373.493Z" fill="#E0E0E0"/>
<path d="M324.932 383.872C324.932 384.019 306.388 384.143 283.508 384.143C260.628 384.143 242.084 384.019 242.084 383.872C242.084 383.725 260.628 383.612 283.508 383.612C306.388 383.612 324.932 383.725 324.932 383.872Z" fill="#E0E0E0"/>
<path d="M409.756 337.445H349.449V395.797H409.756V337.445Z" fill="#F5F5F5"/>
<path d="M354.125 390.795L370.817 360.766L384.459 379.964L392.76 369.766L405.092 390.795H354.125Z" fill="#EBEBEB"/>
<path d="M390.275 354.927C390.277 355.788 390.024 356.63 389.547 357.347C389.07 358.064 388.391 358.623 387.596 358.953C386.801 359.284 385.926 359.371 385.082 359.203C384.237 359.036 383.461 358.621 382.853 358.013C382.244 357.404 381.83 356.628 381.662 355.784C381.495 354.939 381.582 354.064 381.912 353.269C382.243 352.474 382.802 351.795 383.519 351.318C384.235 350.842 385.077 350.588 385.938 350.59C387.089 350.59 388.192 351.047 389.005 351.861C389.818 352.674 390.275 353.777 390.275 354.927Z" fill="#EBEBEB"/>
<path d="M405.092 390.964C405.081 390.881 405.081 390.798 405.092 390.715C405.092 390.546 405.092 390.32 405.092 390.038C405.092 389.417 405.092 388.547 405.092 387.418C405.092 385.103 405.092 381.771 405.024 377.502C405.024 368.976 404.956 356.847 404.9 342.267L405.148 342.515H354.193L354.475 342.233V355.424C354.475 359.715 354.475 363.916 354.475 367.993C354.475 376.17 354.475 383.894 354.475 391.009L354.227 390.749L391.066 390.885L401.455 390.941H404.211H404.934H405.182H404.267H401.557L391.224 390.998L354.227 391.133H353.967V390.885C353.967 383.77 353.967 376.045 353.967 367.869C353.967 363.792 353.967 359.591 353.967 355.3V342.29L354.261 341.996H405.216H405.465V342.233C405.408 356.914 405.363 369.066 405.34 377.626C405.34 381.85 405.284 385.182 405.273 387.486C405.273 388.592 405.273 389.451 405.273 390.06C405.273 390.331 405.273 390.546 405.273 390.715C405.221 390.804 405.161 390.888 405.092 390.964Z" fill="#EBEBEB"/>
<path d="M323.114 226.657H241.316V305.801H323.114V226.657Z" fill="#F5F5F5"/>
<path d="M247.651 299.025L270.283 258.301L288.793 284.332L300.041 270.509L316.767 299.025H247.651Z" fill="#E0E0E0"/>
<path d="M296.676 250.396C296.676 251.559 296.331 252.697 295.684 253.665C295.038 254.632 294.119 255.386 293.044 255.832C291.968 256.277 290.785 256.394 289.644 256.167C288.503 255.94 287.454 255.379 286.631 254.556C285.809 253.733 285.248 252.685 285.021 251.544C284.794 250.402 284.911 249.219 285.356 248.144C285.801 247.069 286.555 246.15 287.523 245.504C288.491 244.857 289.628 244.512 290.792 244.512C292.352 244.512 293.849 245.132 294.952 246.235C296.056 247.339 296.676 248.835 296.676 250.396Z" fill="#E0E0E0"/>
<path d="M316.767 299.251C316.767 299.251 316.767 299.138 316.767 298.923C316.767 298.709 316.767 298.381 316.767 297.997C316.767 297.161 316.767 295.976 316.767 294.44C316.767 291.3 316.71 286.76 316.676 281.001C316.676 269.436 316.575 252.982 316.507 233.219L316.834 233.546L247.73 233.603C247.64 233.682 248.465 232.868 248.114 233.23V250.983C248.114 256.803 248.114 262.487 248.114 268.036C248.114 279.115 248.114 289.595 248.114 299.239L247.776 298.901L297.749 299.07L311.843 299.16H315.592H316.552H316.891H316.597H315.66H311.99L297.974 299.251L247.776 299.42H247.437V299.081C247.437 289.437 247.437 278.957 247.437 267.878C247.437 262.337 247.437 256.652 247.437 250.825V233.241C247.087 233.58 247.911 232.744 247.832 232.835L316.936 232.891H317.275V233.23C317.207 253.084 317.151 269.617 317.105 281.227C317.105 286.952 317.038 291.47 317.015 294.587C317.015 296.089 317.015 297.263 317.015 298.088C317.015 298.46 317.015 298.743 317.015 298.968C316.956 299.081 316.871 299.178 316.767 299.251Z" fill="#E0E0E0"/>
<path d="M334.079 256.731L338.122 264.919L347.157 266.229L340.618 272.61L342.154 281.611L334.079 277.364L325.993 281.611L327.54 272.61L321.002 266.229L330.036 264.919L334.079 256.731Z" fill="#1675FF"/>
<path d="M362.539 228.272L366.582 236.46L375.616 237.77L369.077 244.151L370.625 253.151L362.539 248.894L354.453 253.151L356 244.151L349.461 237.77L358.496 236.46L362.539 228.272Z" fill="#1675FF"/>
<path d="M400.575 217.103L404.618 225.291L413.652 226.601L407.113 232.97L408.661 241.971L400.575 237.725L392.489 241.971L394.036 232.97L387.497 226.601L396.532 225.291L400.575 217.103Z" fill="#1675FF"/>
<path d="M439.943 228.543L443.986 236.731L453.021 238.041L446.482 244.41L448.029 253.411L439.943 249.165L431.857 253.411L433.404 244.41L426.865 238.041L435.9 236.731L439.943 228.543Z" fill="#1675FF"/>
<path d="M467.07 255.67L471.113 263.857L480.147 265.167L473.608 271.548L475.156 280.538L467.07 276.291L458.995 280.538L460.531 271.548L453.992 265.167L463.027 263.857L467.07 255.67Z" fill="#1675FF"/>
<path d="M476.918 295.038L480.961 303.226L489.995 304.536L483.456 310.905L484.992 319.906L476.918 315.66L468.832 319.906L470.379 310.905L463.84 304.536L472.875 303.226L476.918 295.038Z" fill="#1675FF"/>
<path d="M467.341 334.136L471.384 342.324L480.418 343.634L473.879 350.014L475.427 359.015L467.341 354.757L459.254 359.015L460.802 350.014L454.263 343.634L463.298 342.324L467.341 334.136Z" fill="#1675FF"/>
<path d="M438.52 361.274L442.563 369.461L451.598 370.772L445.059 377.141L446.606 386.142L438.52 381.895L430.445 386.142L431.981 377.141L425.454 370.772L434.488 369.461L438.52 361.274Z" fill="#1675FF"/>
<path d="M399.806 372.454L403.849 380.642L412.884 381.952L406.345 388.333L407.892 397.322L399.806 393.076L391.732 397.322L393.268 388.333L386.729 381.952L395.763 380.642L399.806 372.454Z" fill="#1675FF"/>
<path d="M362.832 361.285L366.875 369.473L375.91 370.783L369.371 377.152L370.918 386.153L362.832 381.907L354.757 386.153L356.293 377.152L349.755 370.783L358.801 369.473L362.832 361.285Z" fill="#1675FF"/>
<path d="M333.582 333.424L337.614 341.612L346.649 342.933L340.121 349.303L341.657 358.304L333.582 354.057L325.496 358.304L327.044 349.303L320.505 342.933L329.539 341.612L333.582 333.424Z" fill="#1675FF"/>
<path d="M323.735 295.083L327.778 303.271L336.812 304.581L330.273 310.962L331.821 319.951L323.735 315.705L315.649 319.951L317.196 310.962L310.657 304.581L319.692 303.271L323.735 295.083Z" fill="#1675FF"/>
<path d="M428.458 323.17H420.553V280.142C420.553 275.272 418.618 270.602 415.174 267.158C411.73 263.714 407.06 261.779 402.19 261.779C397.319 261.779 392.649 263.714 389.205 267.158C385.761 270.602 383.827 275.272 383.827 280.142V323.17H375.921V280.142C375.921 276.693 376.601 273.277 377.921 270.09C379.241 266.903 381.176 264.007 383.615 261.568C386.054 259.129 388.95 257.194 392.137 255.874C395.324 254.554 398.74 253.874 402.19 253.874C405.639 253.874 409.055 254.554 412.242 255.874C415.429 257.194 418.325 259.129 420.764 261.568C423.203 264.007 425.138 266.903 426.458 270.09C427.778 273.277 428.458 276.693 428.458 280.142V323.17Z" fill="#263238"/>
<path d="M431.033 304.028H373.346C369.722 304.028 366.785 306.965 366.785 310.589V342.9C366.785 346.523 369.722 349.461 373.346 349.461H431.033C434.656 349.461 437.594 346.523 437.594 342.9V310.589C437.594 306.965 434.656 304.028 431.033 304.028Z" fill="#1675FF"/>
<path d="M408.107 320.821C408.107 321.991 407.76 323.136 407.11 324.109C406.46 325.082 405.535 325.84 404.454 326.288C403.373 326.736 402.183 326.853 401.035 326.625C399.887 326.397 398.833 325.833 398.005 325.005C397.177 324.178 396.614 323.123 396.385 321.976C396.157 320.828 396.274 319.638 396.722 318.556C397.17 317.475 397.929 316.551 398.902 315.901C399.875 315.25 401.019 314.903 402.189 314.903C403.759 314.903 405.264 315.527 406.374 316.637C407.484 317.746 408.107 319.252 408.107 320.821Z" fill="#263238"/>
<path d="M403.804 323.17H400.575V335.344H403.804V323.17Z" fill="#263238"/>
<path d="M370.557 345.147C370.399 345.147 370.263 337.569 370.263 328.207C370.263 318.845 370.399 311.267 370.557 311.267C370.715 311.267 370.85 318.845 370.85 328.207C370.85 337.569 370.76 345.147 370.557 345.147Z" fill="#FAFAFA"/>
<path d="M397.559 328.41C397.559 328.41 397.277 328.32 396.859 328.015C396.274 327.577 395.76 327.051 395.334 326.456C394.602 325.482 394.094 324.359 393.845 323.166C393.596 321.973 393.613 320.739 393.894 319.554C394.175 318.368 394.714 317.259 395.473 316.305C396.231 315.351 397.19 314.575 398.282 314.034C398.931 313.696 399.628 313.46 400.349 313.334C400.609 313.279 400.878 313.279 401.139 313.334C400.228 313.644 399.341 314.021 398.485 314.463C397.481 315.016 396.604 315.772 395.911 316.684C395.217 317.596 394.722 318.643 394.457 319.758C394.192 320.872 394.163 322.03 394.373 323.157C394.582 324.283 395.025 325.353 395.673 326.298C396.244 327.052 396.875 327.758 397.559 328.41Z" fill="#FAFAFA"/>
<path d="M153.104 283.858C152.307 286.443 152.37 289.217 153.284 291.763C154.211 294.287 155.407 296.702 156.853 298.968C158.716 294.456 160.319 289.841 161.653 285.145C161.867 284.652 161.955 284.113 161.91 283.577C161.864 283.041 161.687 282.524 161.393 282.074C161.082 281.816 160.72 281.627 160.33 281.52C159.941 281.413 159.533 281.39 159.134 281.452C156.728 281.599 154.446 282.572 152.674 284.208" fill="#263238"/>
<path d="M53.5191 410.535L35.0432 452.761H60.4758L78.5903 410.196L53.5191 410.535Z" fill="#263238"/>
<path d="M163.38 452.264C188.305 444.009 171.218 411.043 171.218 411.043L62.2712 421.287C58.0878 421.286 54.0748 422.944 51.1113 425.897C48.1479 428.85 46.4755 432.857 46.4606 437.041C46.4606 441.234 48.1263 445.255 51.0914 448.221C54.0565 451.186 58.078 452.851 62.2712 452.851L163.482 452.309" fill="#455A64"/>
<path d="M188.158 452.806C212.45 444.607 196.436 411.021 196.436 411.021L90.2789 421.027C79.9116 421.162 74.8409 426.165 74.8409 436.758C74.8409 445.454 78.0708 452.795 90.245 452.569L188.203 452.817" fill="#455A64"/>
<path d="M164.228 416.6H163.934H163.042L159.654 416.735L147.163 417.356L105.954 419.615C103.933 419.717 101.945 419.886 99.9912 419.92C98.0374 419.954 96.0837 420.033 94.1864 420.146C92.2891 420.259 90.4257 420.406 88.5397 420.598C86.7272 420.73 84.9413 421.11 83.2319 421.727C81.5776 422.347 80.0729 423.309 78.8162 424.55C77.6214 425.775 76.7047 427.242 76.1284 428.853C75.585 430.355 75.2063 431.911 74.999 433.495C74.7982 434.95 74.7001 436.418 74.7054 437.888C74.6637 440.423 75.1403 442.94 76.1058 445.285C76.8398 447.029 77.9733 448.576 79.4147 449.802C80.2961 450.56 81.3164 451.139 82.4188 451.507C83.1641 451.745 83.1867 451.666 82.4188 451.394C81.3509 450.984 80.3644 450.388 79.5051 449.633C78.1266 448.407 77.0485 446.881 76.3542 445.172C75.4361 442.864 74.9943 440.394 75.0555 437.91C75.062 436.463 75.1715 435.017 75.383 433.585C75.5901 432.042 75.9689 430.527 76.5123 429.068C77.0612 427.527 77.9444 426.127 79.0985 424.968C80.3109 423.777 81.762 422.858 83.3561 422.269C85.033 421.688 86.7802 421.335 88.551 421.219C90.358 421.038 92.2214 420.891 94.1186 420.79C96.0159 420.688 97.9358 420.598 99.9008 420.564C101.866 420.53 103.854 420.372 105.864 420.27L147.152 417.774L159.643 416.972L163.031 416.724L163.911 416.645C164.019 416.651 164.126 416.636 164.228 416.6Z" fill="#263238"/>
<path d="M188.215 427.001C187.957 427.195 187.666 427.341 187.356 427.43C186.525 427.731 185.653 427.91 184.77 427.961C183.299 428.072 181.822 427.86 180.442 427.339C179.062 426.817 177.814 426 176.784 424.943C175.755 423.887 174.97 422.618 174.484 421.225C173.998 419.832 173.824 418.349 173.974 416.882C174.041 416.002 174.243 415.137 174.572 414.318C174.662 414.01 174.812 413.722 175.013 413.471C174.702 414.598 174.494 415.751 174.392 416.916C174.3 418.313 174.504 419.714 174.989 421.027C175.474 422.34 176.23 423.537 177.208 424.539C178.185 425.541 179.363 426.327 180.664 426.844C181.965 427.362 183.36 427.6 184.759 427.543C185.926 427.477 187.084 427.296 188.215 427.001Z" fill="#263238"/>
<path d="M134.187 360.223L124.102 394.713L86.8006 398.711V405.329L141.618 406.086L149.072 361.183L134.187 360.223Z" fill="#FFBE9D"/>
<path d="M182.828 324.198C189.446 324.198 207.368 327.586 208.938 339.669C210.361 350.579 212.484 362.956 212.484 362.956L188.904 363.589L196.933 365.723L200.321 416.645L139.269 414.522L142.51 388.344L145.221 362.2L131.883 361.07C131.883 361.07 136.401 338.292 144.408 331.256C149.429 327.198 155.548 324.733 161.98 324.175C168.924 323.782 175.884 323.782 182.828 324.175" fill="#1675FF"/>
<path d="M147.412 345.26C147.559 345.26 146.621 354.475 145.334 365.814C144.046 377.152 142.883 386.334 142.736 386.311C142.589 386.288 143.527 377.096 144.826 365.757C146.124 354.419 147.276 345.26 147.412 345.26Z" fill="#263238"/>
<path d="M184.646 324.277C184.646 324.277 184.646 324.424 184.714 324.706C184.781 324.988 184.77 325.406 184.781 325.937C184.814 327.469 184.588 328.996 184.115 330.454C183.498 332.681 182.306 334.706 180.659 336.327C179.645 337.293 178.441 338.039 177.125 338.518C175.692 338.988 174.194 339.224 172.686 339.218C171.174 339.256 169.662 339.154 168.169 338.913C166.775 338.693 165.449 338.156 164.295 337.343C162.451 335.913 161.155 333.891 160.625 331.617C160.224 330.147 160.053 328.623 160.117 327.1C160.117 326.569 160.173 326.151 160.207 325.869C160.215 325.723 160.241 325.579 160.286 325.44C160.318 325.993 160.318 326.547 160.286 327.1C160.295 328.606 160.512 330.103 160.93 331.55C161.488 333.722 162.761 335.643 164.544 337.004C165.648 337.767 166.91 338.269 168.237 338.472C169.685 338.703 171.152 338.802 172.619 338.766C174.072 338.766 175.516 338.537 176.899 338.088C178.162 337.648 179.317 336.943 180.287 336.022C181.897 334.464 183.083 332.52 183.731 330.375C184.214 328.951 184.485 327.463 184.533 325.959C184.623 324.932 184.612 324.277 184.646 324.277Z" fill="#263238"/>
<g opacity="0.2">
<path d="M187.921 345.26C185.662 356.067 182.715 367.169 180.456 378.01C180.136 380.34 179.32 382.574 178.062 384.561C177.131 385.698 176.044 386.698 174.832 387.531C170.474 391.016 165.626 393.84 160.444 395.91C168.008 395.264 175.501 393.961 182.839 392.014C183.452 391.98 184.052 391.824 184.604 391.556C185.157 391.288 185.65 390.913 186.057 390.453C186.463 389.993 186.775 389.457 186.972 388.876C187.17 388.295 187.251 387.68 187.21 387.068C188.836 373.211 188.339 359.241 187.921 345.282" fill="#1E1E1E"/>
</g>
<path d="M212.868 363.137C212.283 363.238 211.689 363.284 211.095 363.273L206.25 363.453C202.173 363.589 196.526 363.724 190.281 363.849H188.282H188.034V363.6C187.808 357.807 187.91 352.657 188.034 348.919C188.034 347.078 188.158 345.587 188.226 344.56C188.228 344.025 188.277 343.493 188.373 342.967C188.416 343.497 188.416 344.03 188.373 344.56C188.373 345.689 188.373 347.146 188.373 348.93C188.373 352.634 188.305 357.784 188.542 363.544L188.282 363.295H190.293C196.526 363.171 202.173 363.092 206.261 363.058H211.106C211.695 363.039 212.284 363.066 212.868 363.137Z" fill="#263238"/>
<path d="M40.0799 365.588L60.9161 406.582H126.621L123.955 401.241L104.926 400.665L89.4092 366.13C88.9377 365.078 88.1716 364.186 87.2036 363.56C86.2355 362.935 85.107 362.604 83.9545 362.606H41.932C41.5819 362.609 41.2382 362.701 40.933 362.873C40.6277 363.044 40.3708 363.29 40.186 363.588C40.0013 363.885 39.8946 364.224 39.8761 364.574C39.8575 364.924 39.9276 365.272 40.0799 365.588Z" fill="#E0E0E0"/>
<path d="M70.4703 386.48C71.8612 386.48 72.9887 385.353 72.9887 383.962C72.9887 382.571 71.8612 381.444 70.4703 381.444C69.0794 381.444 67.9519 382.571 67.9519 383.962C67.9519 385.353 69.0794 386.48 70.4703 386.48Z" fill="#263238"/>
<path d="M184.974 293.31L182.625 326.648C182.436 329.27 181.262 331.723 179.339 333.514C177.416 335.306 174.886 336.302 172.257 336.304C170.835 336.304 169.429 336.012 168.124 335.447C166.819 334.882 165.644 334.055 164.671 333.018C163.699 331.981 162.949 330.755 162.469 329.417C161.988 328.078 161.788 326.656 161.879 325.237C162.093 322.063 162.274 319.454 162.274 319.454C162.274 319.454 154.222 318.201 154.109 310.137C154.109 306.332 154.561 298.844 155.125 291.741C155.445 287.764 157.249 284.053 160.178 281.344C163.106 278.635 166.946 277.126 170.936 277.116C172.931 277.229 174.883 277.742 176.676 278.623C178.47 279.504 180.068 280.736 181.377 282.246C182.686 283.756 183.679 285.514 184.296 287.414C184.914 289.314 185.144 291.319 184.974 293.31Z" fill="#FFBE9D"/>
<path d="M162.229 319.872C165.957 319.944 169.621 318.902 172.754 316.88C172.754 316.88 170.258 322.684 162.206 321.962L162.229 319.872Z" fill="#EB996E"/>
<path d="M157.655 297.003C157.655 297.303 157.774 297.59 157.985 297.802C158.197 298.014 158.485 298.133 158.784 298.133C159.078 298.148 159.367 298.048 159.588 297.854C159.81 297.66 159.947 297.387 159.97 297.094C159.97 296.794 159.851 296.507 159.639 296.295C159.427 296.083 159.14 295.964 158.841 295.964C158.546 295.949 158.258 296.049 158.036 296.243C157.815 296.437 157.678 296.71 157.655 297.003Z" fill="#263238"/>
<path d="M156.932 295.422C157.079 295.569 157.948 294.925 159.191 294.925C160.433 294.925 161.336 295.546 161.449 295.4C161.562 295.253 161.37 295.061 160.975 294.767C160.436 294.398 159.798 294.202 159.145 294.203C158.5 294.205 157.872 294.41 157.35 294.79C156.988 295.083 156.864 295.354 156.932 295.422Z" fill="#263238"/>
<path d="M169.332 297.342C169.332 297.642 169.451 297.929 169.663 298.141C169.875 298.352 170.162 298.471 170.461 298.471C170.746 298.472 171.02 298.366 171.23 298.173C171.439 297.981 171.568 297.716 171.591 297.432C171.591 297.133 171.472 296.846 171.26 296.634C171.048 296.422 170.761 296.303 170.461 296.303C170.177 296.302 169.903 296.409 169.693 296.601C169.484 296.794 169.355 297.059 169.332 297.342Z" fill="#263238"/>
<path d="M169.118 295.648C169.265 295.795 170.145 295.151 171.376 295.162C172.607 295.174 173.522 295.784 173.635 295.625C173.748 295.467 173.556 295.287 173.161 295.004C172.625 294.629 171.985 294.431 171.331 294.44C170.687 294.436 170.058 294.637 169.536 295.016C169.185 295.309 169.05 295.569 169.118 295.648Z" fill="#263238"/>
<path d="M164.623 304.841C163.97 304.64 163.295 304.518 162.613 304.48C162.297 304.48 161.992 304.389 161.935 304.175C161.91 303.844 161.985 303.514 162.15 303.226L163.087 300.82C163.952 298.778 164.654 296.671 165.188 294.519C164.16 296.488 163.288 298.535 162.579 300.64C162.274 301.487 161.969 302.289 161.687 303.057C161.483 303.441 161.427 303.887 161.529 304.31C161.576 304.421 161.646 304.52 161.736 304.6C161.826 304.68 161.933 304.739 162.048 304.773C162.222 304.815 162.4 304.838 162.579 304.841C163.257 304.934 163.945 304.934 164.623 304.841Z" fill="#263238"/>
<path d="M168.27 305.733C168.067 305.733 168.067 307.066 166.915 307.992C165.763 308.918 164.329 308.805 164.318 308.986C164.307 309.166 164.645 309.245 165.244 309.268C166.034 309.282 166.802 309.013 167.412 308.511C167.998 308.031 168.374 307.343 168.462 306.591C168.519 306.027 168.361 305.733 168.27 305.733Z" fill="#263238"/>
<path d="M168.801 290.792C168.926 291.131 170.168 290.973 171.613 291.142C173.059 291.311 174.245 291.718 174.437 291.413C174.629 291.108 174.324 290.95 173.849 290.623C173.218 290.222 172.502 289.971 171.759 289.889C171.015 289.806 170.262 289.895 169.558 290.148C169.016 290.363 168.745 290.634 168.801 290.792Z" fill="#263238"/>
<path d="M157.395 291.831C157.61 292.113 158.524 291.831 159.496 291.831C160.467 291.831 161.382 292.023 161.585 291.718C161.788 291.413 161.585 291.3 161.156 291.029C160.645 290.706 160.05 290.543 159.446 290.561C158.842 290.579 158.258 290.778 157.768 291.131C157.418 291.402 157.316 291.695 157.395 291.831Z" fill="#263238"/>
<path d="M182.252 299.894C182.387 299.827 187.797 298.257 187.616 303.768C187.435 309.279 181.969 307.969 181.969 307.811C181.969 307.653 182.252 299.894 182.252 299.894Z" fill="#FFBE9D"/>
<path d="M183.686 305.733C183.686 305.733 183.788 305.801 183.946 305.88C184.058 305.927 184.179 305.951 184.301 305.951C184.424 305.951 184.544 305.927 184.657 305.88C185.013 305.663 185.305 305.355 185.504 304.988C185.702 304.621 185.8 304.208 185.787 303.791C185.809 303.317 185.732 302.844 185.561 302.402C185.512 302.229 185.424 302.07 185.302 301.939C185.18 301.807 185.029 301.706 184.86 301.645C184.752 301.611 184.635 301.616 184.529 301.659C184.424 301.702 184.337 301.781 184.284 301.882C184.205 302.04 184.284 302.153 184.205 302.153C184.126 302.153 184.092 302.063 184.205 301.837C184.236 301.7 184.316 301.579 184.431 301.498C184.507 301.443 184.593 301.404 184.684 301.382C184.775 301.361 184.87 301.358 184.962 301.374C185.188 301.424 185.397 301.531 185.569 301.685C185.741 301.84 185.87 302.036 185.945 302.255C186.161 302.745 186.257 303.279 186.227 303.813C186.234 304.304 186.098 304.787 185.835 305.202C185.572 305.617 185.194 305.947 184.748 306.151C184.596 306.183 184.44 306.183 184.288 306.152C184.137 306.121 183.993 306.059 183.867 305.97C183.697 305.914 183.675 305.79 183.686 305.733Z" fill="#EB996E"/>
<path d="M133.611 406.65H53.3044V410.569H133.611V406.65Z" fill="#263238"/>
<path d="M108.879 408.615L133.307 452.806H155.182L133.611 410.569L108.879 408.615Z" fill="#263238"/>
<path d="M133.6 410.569C133.6 410.727 115.598 410.953 93.3958 411.066C71.1931 411.179 53.1915 411.134 53.1915 410.976C53.1915 410.818 71.1931 410.592 93.3958 410.479C115.598 410.366 133.6 410.411 133.6 410.569Z" fill="#455A64"/>
<path d="M152.9 288.149C153.634 288.419 154.416 288.529 155.194 288.472C155.973 288.416 156.731 288.194 157.418 287.822C157.295 287.959 157.203 288.12 157.148 288.295C157.092 288.471 157.075 288.656 157.096 288.838C157.117 289.021 157.177 289.197 157.272 289.354C157.366 289.512 157.493 289.648 157.644 289.753C158.278 290.144 159.027 290.308 159.767 290.216C163.78 290.06 167.595 288.432 170.484 285.642C170.548 286.339 170.816 287.002 171.253 287.548C171.691 288.094 172.28 288.5 172.946 288.714C174.291 289.115 175.723 289.115 177.068 288.714C176.569 290.754 176.485 292.874 176.82 294.948C177.001 295.98 177.48 296.936 178.199 297.699C178.917 298.462 179.843 298.997 180.863 299.239C181.12 300.307 181.208 301.408 181.123 302.503C181.202 303.633 181.834 304.852 182.941 304.886C184.047 304.92 184.623 303.915 184.759 302.955C184.894 301.995 184.319 300.041 185.007 298.494C185.696 296.947 185.459 297.116 186.193 295.434C186.927 293.751 187.323 291.424 187.932 289.674C188.595 287.932 188.646 286.017 188.079 284.242C187.767 283.372 187.196 282.619 186.443 282.084C185.69 281.549 184.791 281.257 183.867 281.249C184.204 280.377 184.257 279.42 184.019 278.516C183.78 277.612 183.262 276.806 182.538 276.214C181.814 275.621 180.922 275.273 179.988 275.218C179.055 275.163 178.128 275.404 177.339 275.907C177.339 275.907 171.06 271.638 164.115 273.999C157.169 276.359 156.13 282.661 154.617 282.853C153.104 283.045 148.519 280.594 149.309 282.13C150.1 283.666 151.41 285.213 152.065 285.281C152.72 285.349 146.813 282.853 148.846 285.089C149.977 286.372 151.356 287.413 152.9 288.149Z" fill="#263238"/>
<path d="M208.26 341.872C207.615 341.096 206.883 340.395 206.081 339.782C203.807 338.218 201.091 337.426 198.333 337.524C194.844 337.524 190.846 339.026 186.916 341.431C182.986 343.837 178.954 347.078 173.962 349.258C169.246 351.389 163.882 351.588 159.021 349.811C156.93 349.029 154.977 347.915 153.239 346.513C151.602 345.248 150.156 343.972 148.722 342.945C146.584 341.199 143.972 340.133 141.223 339.884C140.211 339.86 139.202 339.994 138.23 340.279C138.23 340.279 138.23 340.279 138.411 340.189C138.591 340.106 138.776 340.034 138.964 339.974C139.697 339.755 140.459 339.649 141.223 339.658C144.048 339.819 146.754 340.848 148.97 342.606C151.861 344.605 154.809 347.778 159.134 349.303C163.874 350.98 169.077 350.774 173.669 348.727C178.548 346.604 182.545 343.317 186.577 340.968C190.609 338.619 194.674 337.038 198.266 337.106C201.108 337.043 203.889 337.929 206.171 339.624C206.778 340.085 207.322 340.624 207.786 341.228C207.97 341.422 208.13 341.638 208.26 341.872Z" fill="#FAFAFA"/>
<path d="M188.17 371.596C188.17 371.596 187.616 371.234 186.611 370.658C185.186 369.839 183.644 369.244 182.037 368.897C179.667 368.37 177.205 368.413 174.855 369.021C172.189 369.687 169.468 371.088 166.441 372.206C164.96 372.752 163.422 373.131 161.856 373.335C160.395 373.518 158.918 373.545 157.452 373.414C154.971 373.193 152.551 372.532 150.303 371.46C148.785 370.755 147.374 369.839 146.113 368.739C145.763 368.451 145.435 368.137 145.131 367.801C144.916 367.587 144.803 367.462 144.826 367.44C144.848 367.417 145.334 367.846 146.26 368.569C147.557 369.58 148.971 370.429 150.472 371.099C152.697 372.087 155.071 372.694 157.497 372.894C160.467 373.125 163.452 372.697 166.238 371.641C169.005 370.436 171.837 369.385 174.719 368.49C176.75 367.984 178.862 367.896 180.928 368.232C182.994 368.567 184.97 369.32 186.735 370.444C187.126 370.694 187.503 370.965 187.865 371.257C188.068 371.472 188.181 371.584 188.17 371.596Z" fill="#FAFAFA"/>
<path d="M197.057 390.58C196.347 390.299 195.619 390.065 194.878 389.88C192.82 389.547 190.711 389.737 188.745 390.433C187.381 390.881 186.058 391.447 184.793 392.127C183.415 392.85 181.981 393.708 180.433 394.544C178.813 395.462 177.098 396.2 175.318 396.746C173.369 397.318 171.31 397.403 169.321 396.995C165.221 396.102 161.98 393.731 158.999 391.958C156.458 390.19 153.544 389.03 150.484 388.57C148.413 388.351 146.327 388.802 144.532 389.857C143.891 390.274 143.3 390.762 142.77 391.314C142.861 391.134 142.975 390.967 143.109 390.817C143.486 390.381 143.923 390 144.408 389.688C146.224 388.509 148.384 387.976 150.54 388.174C153.273 388.31 156.288 389.654 159.304 391.472C162.319 393.29 165.538 395.549 169.468 396.396C171.366 396.787 173.331 396.709 175.193 396.17C176.935 395.64 178.615 394.928 180.208 394.047C181.755 393.234 183.2 392.387 184.601 391.664C185.904 390.994 187.265 390.443 188.666 390.015C190.691 389.324 192.865 389.195 194.957 389.643C195.52 389.778 196.066 389.978 196.583 390.241C196.899 390.433 197.069 390.557 197.057 390.58Z" fill="#FAFAFA"/>
<path d="M199.937 412.161C199.763 412.27 199.572 412.35 199.373 412.399C198.802 412.561 198.215 412.659 197.622 412.692C195.433 412.693 193.268 412.239 191.264 411.36C189.884 410.82 188.474 410.364 187.04 409.993C185.389 409.647 183.695 409.548 182.015 409.699C178.446 410.004 174.685 411.36 170.721 412.511C168.758 413.095 166.748 413.507 164.713 413.742C162.807 413.921 160.888 413.894 158.988 413.663C155.791 413.218 152.662 412.38 149.671 411.168C147.658 410.38 145.686 409.491 143.764 408.502C143.075 408.164 142.556 407.87 142.206 407.678C142.016 407.591 141.838 407.481 141.675 407.35C141.878 407.394 142.072 407.471 142.251 407.576L143.855 408.299C145.255 408.932 147.243 409.846 149.817 410.795C152.79 411.937 155.887 412.722 159.044 413.133C160.921 413.34 162.814 413.34 164.691 413.133C166.691 412.9 168.668 412.492 170.597 411.913C174.584 410.784 178.39 409.417 182.06 409.135C183.795 408.984 185.544 409.102 187.243 409.485C188.693 409.876 190.116 410.363 191.501 410.942C193.453 411.831 195.558 412.337 197.701 412.432C198.453 412.405 199.201 412.314 199.937 412.161Z" fill="#FAFAFA"/>
<path d="M211.524 357.434C211.333 357.709 211.1 357.953 210.835 358.157C210.136 358.746 209.352 359.226 208.509 359.58C207.246 360.105 205.89 360.37 204.522 360.359C202.844 360.297 201.2 359.861 199.711 359.083C198.13 358.326 196.707 357.502 195.318 357.005C194.101 356.563 192.796 356.42 191.512 356.587C190.649 356.698 189.83 357.037 189.141 357.569C188.666 357.976 188.463 358.27 188.418 358.236C188.534 357.915 188.728 357.627 188.982 357.4C189.66 356.759 190.513 356.334 191.433 356.18C192.793 355.941 194.192 356.05 195.499 356.497C197.045 357.089 198.553 357.776 200.016 358.552C201.415 359.29 202.955 359.721 204.533 359.817C205.834 359.856 207.13 359.645 208.351 359.196C209.464 358.715 210.527 358.125 211.524 357.434Z" fill="#FAFAFA"/>
<path d="M145.932 356.869C145.932 356.869 145.865 357.061 145.571 357.265C145.144 357.527 144.649 357.657 144.148 357.637C143.413 357.611 142.696 357.405 142.059 357.039C141.347 356.643 140.67 356.09 139.936 355.616C138.691 354.797 137.176 354.493 135.712 354.769C134.583 354.972 133.961 355.39 133.905 355.3C134.364 354.814 134.965 354.486 135.622 354.362C136.403 354.151 137.221 354.11 138.02 354.242C138.819 354.375 139.58 354.678 140.252 355.13C141.031 355.627 141.686 356.18 142.33 356.564C142.887 356.917 143.516 357.14 144.171 357.219C144.779 357.263 145.387 357.142 145.932 356.869Z" fill="#FAFAFA"/>
<path d="M115.26 393.335L131.692 391.359L143.267 398.948L187.537 388.344L188.836 363.634L208.712 363.137L208.249 392.138C208.202 394.357 207.717 396.545 206.821 398.575C205.926 400.605 204.637 402.439 203.03 403.969C201.423 405.499 199.529 406.697 197.458 407.492C195.386 408.288 193.177 408.666 190.959 408.604L126.113 406.808L123.357 401.286L109.444 400.879L115.26 393.335Z" fill="#FFBE9D"/>
<path d="M186.984 388.344C186.711 388.444 186.431 388.527 186.148 388.592L183.742 389.225L174.855 391.483L145.492 398.598L142.77 399.242H142.657L142.567 399.174L130.991 391.562H131.149L114.718 393.46H114.819L110.483 398.971C109.986 399.569 109.602 400.1 109.353 400.416C109.225 400.591 109.081 400.753 108.924 400.902C109.029 400.711 109.15 400.53 109.285 400.36L110.415 398.858L114.638 393.211H114.706L131.127 391.156H131.217H131.296L142.883 398.722H142.68L145.413 398.067L174.775 391.099L183.709 389.044L186.137 388.513C186.413 388.43 186.697 388.374 186.984 388.344Z" fill="#EB996E"/>
<path d="M124.238 398.045C122.117 398.299 119.98 398.386 117.846 398.305H116.716H116.886C115.597 399.482 114.211 400.547 112.741 401.489C113.904 400.191 115.177 398.997 116.547 397.921L116.626 397.853H117.88C120.001 397.744 122.127 397.808 124.238 398.045Z" fill="#EB996E"/>
<path d="M195.137 393.29C194.353 391.922 193.244 390.766 191.91 389.925C190.575 389.085 189.054 388.584 187.48 388.468C187.937 388.307 188.427 388.268 188.903 388.355C190.071 388.474 191.196 388.861 192.19 389.484C193.182 390.107 194.014 390.954 194.618 391.958C194.907 392.347 195.087 392.808 195.137 393.29Z" fill="#EB996E"/>
</svg>
