<svg width="192" height="51" viewBox="0 0 192 51" fill="none" xmlns="http://www.w3.org/2000/svg">
<path d="M57.9671 44.5778H62.2091V38.4018H67.0678C70.4219 38.4018 72.9376 36.0643 72.9376 32.9393C72.9376 29.716 70.4713 27.3538 67.0678 27.3538H57.9671V44.5778ZM62.2091 34.9078V30.9709H66.5745C67.8077 30.9709 68.6462 31.7829 68.6462 32.9639C68.6462 34.1204 67.8077 34.9078 66.5745 34.9078H62.2091Z" fill="#1E1E1E"/>
<path d="M74.6224 44.5778H78.8644V38.3034H82.0953L85.3508 44.5778H90.0861L86.3126 37.6882C88.261 36.8024 89.5435 35.0062 89.5435 32.8409C89.5435 29.6422 87.0032 27.3538 83.4517 27.3538H74.6224V44.5778ZM78.8644 34.8586V30.9709H83.0571C84.3643 30.9709 85.2521 31.7583 85.2521 32.9147C85.2521 34.0712 84.3643 34.8586 83.0571 34.8586H78.8644Z" fill="#1E1E1E"/>
<path d="M99.8368 44.8485C105.016 44.8485 109.061 40.9362 109.061 35.9658C109.061 30.9955 105.016 27.0832 99.8368 27.0832C94.6576 27.0832 90.6129 30.9955 90.6129 35.9658C90.6129 40.9362 94.6576 44.8485 99.8368 44.8485ZM99.8368 40.9608C97.0746 40.9608 94.9782 38.8201 94.9782 35.9658C94.9782 33.1116 97.0746 30.9709 99.8368 30.9709C102.599 30.9709 104.695 33.1116 104.695 35.9658C104.695 38.8201 102.599 40.9608 99.8368 40.9608Z" fill="#1E1E1E"/>
<path d="M107.656 44.5778H112.514L116.608 38.8201L120.727 44.5778H125.783L119.124 35.6952L125.265 27.3538H120.406L116.707 32.5456L113.007 27.3538H107.952L114.191 35.6952L107.656 44.5778Z" fill="#1E1E1E"/>
<path d="M125.816 44.5778H130.059V27.3538H125.816V44.5778Z" fill="#1E1E1E"/>
<path d="M132.428 44.5778H146.141V40.9116H136.67V37.6636H142.861V34.1204H136.67V31.0201H146.042V27.3538H132.428V44.5778Z" fill="#1E1E1E"/>
<path d="M154.507 44.8239C159.193 44.8239 162.079 42.6586 162.079 39.1646C162.079 36.5072 160.328 34.8094 156.998 34.268L153.422 33.6775C151.967 33.4314 151.375 33.0131 151.375 32.152C151.375 31.2169 152.436 30.651 154.162 30.651C155.987 30.651 157.639 31.2908 159.465 32.6933L161.709 29.5684C159.81 28.0428 157.023 27.1078 154.458 27.1078C150.043 27.1078 147.38 29.1255 147.38 32.4718C147.38 35.0062 148.933 36.704 151.745 37.1961L155.543 37.8605C157.27 38.1557 157.935 38.6232 157.935 39.5829C157.935 40.6409 156.776 41.256 154.828 41.256C152.83 41.256 151.178 40.5671 149.081 38.8693L146.714 41.945C148.859 43.7658 151.72 44.8239 154.507 44.8239Z" fill="#1E1E1E"/>
<path d="M57.9789 23.3761H71.1908V19.6727H62.1794V6.32099H57.9789V23.3761Z" fill="#1E1E1E"/>
<path d="M73.0399 23.3761H77.2404V6.32099H73.0399V23.3761Z" fill="#1E1E1E"/>
<path d="M88.1343 23.6441C93.1407 23.6441 96.8039 19.892 96.8039 14.7511V13.5328H87.6459V17.1631H92.2615C91.7731 18.7468 90.1857 19.8432 88.2076 19.8432C85.3992 19.8432 83.2989 17.6992 83.2989 14.8485C83.2989 12.0223 85.3259 9.90255 88.0611 9.90255C89.7706 9.90255 91.2358 10.6335 92.3592 12.0466L95.3142 9.3909C93.678 7.31993 90.9672 6.05298 88.0611 6.05298C82.9571 6.05298 78.9764 9.90255 78.9764 14.8485C78.9764 19.7945 82.9815 23.6441 88.1343 23.6441Z" fill="#1E1E1E"/>
<path d="M98.5353 23.3761H102.736V16.7002H109.769V23.3761H113.969V6.32099H109.769V12.875H102.736V6.32099H98.5353V23.3761Z" fill="#1E1E1E"/>
<path d="M120.931 23.3761H125.131V10.0244H130.724V6.32099H115.338V10.0244H120.931V23.3761Z" fill="#1E1E1E"/>
<path d="M132.092 23.3761H136.048V13.0943L144.058 23.3761H147.77V6.32099H143.814V16.2129L136.048 6.32099H132.092V23.3761Z" fill="#1E1E1E"/>
<path d="M150.11 23.3761H154.31V6.32099H150.11V23.3761Z" fill="#1E1E1E"/>
<path d="M156.657 23.3761H160.613V13.0943L168.623 23.3761H172.335V6.32099H168.379V16.2129L160.613 6.32099H156.657V23.3761Z" fill="#1E1E1E"/>
<path d="M183.222 23.6441C188.229 23.6441 191.892 19.892 191.892 14.7511V13.5328H182.734V17.1631H187.35C186.861 18.7468 185.274 19.8432 183.296 19.8432C180.487 19.8432 178.387 17.6992 178.387 14.8485C178.387 12.0223 180.414 9.90255 183.149 9.90255C184.859 9.90255 186.324 10.6335 187.447 12.0466L190.402 9.3909C188.766 7.31993 186.055 6.05298 183.149 6.05298C178.045 6.05298 174.065 9.90255 174.065 14.8485C174.065 19.7945 178.07 23.6441 183.222 23.6441Z" fill="#1E1E1E"/>
<rect x="0.763672" y="0.30127" width="50.2862" height="50.2862" rx="8.92103" fill="#1675FF"/>
<path d="M16.3452 14.079L18.4513 8.94531H34.6421C36.8799 9.25246 41.3554 11.2357 41.3554 16.7117C41.3554 21.6991 37.7884 23.9348 35.5276 24.5924C35.1183 24.7114 34.6909 24.7413 34.2647 24.7413H23.1901L25.5595 19.3443H33.7577C33.9949 19.3443 34.2329 19.3138 34.4484 19.2146C35.1856 18.8751 36.2217 18.0686 36.2217 16.7117C36.2217 15.3547 35.1856 14.5482 34.4484 14.2087C34.2329 14.1095 33.9949 14.079 33.7577 14.079H16.3452Z" fill="white"/>
<path d="M25.0568 15.6118H19.2649L12.6833 31.4078H23.8721L19.0017 43.7813L36.5089 26.1425H20.7129L25.0568 15.6118Z" fill="white"/>
</svg>
