<svg width="48" height="48" viewBox="0 0 48 48" fill="none" xmlns="http://www.w3.org/2000/svg">
<path fill-rule="evenodd" clip-rule="evenodd" d="M38.7683 23.7601C38.7683 22.9498 38.1114 22.2929 37.3011 22.2929H9.91371C9.10341 22.2929 8.44653 22.9498 8.44653 23.7601C8.44653 24.5704 9.10341 25.2273 9.91371 25.2273H37.3011C38.1114 25.2273 38.7683 24.5704 38.7683 23.7601Z" fill="#1675FF"/>
<path fill-rule="evenodd" clip-rule="evenodd" d="M38.7683 13.9789C38.7683 13.1686 38.1114 12.5117 37.3011 12.5117H9.91371C9.10341 12.5117 8.44653 13.1686 8.44653 13.9789C8.44653 14.7892 9.10341 15.4461 9.91371 15.4461H37.3011C38.1114 15.4461 38.7683 14.7892 38.7683 13.9789Z" fill="#1675FF"/>
<path fill-rule="evenodd" clip-rule="evenodd" d="M38.7683 33.5413C38.7683 32.731 38.1114 32.0741 37.3011 32.0741H9.91371C9.10341 32.0741 8.44653 32.731 8.44653 33.5413C8.44653 34.3516 9.10341 35.0085 9.91371 35.0085H37.3011C38.1114 35.0085 38.7683 34.3516 38.7683 33.5413Z" fill="#1675FF"/>
</svg>
