<svg width="14" height="13" viewBox="0 0 14 13" fill="none" xmlns="http://www.w3.org/2000/svg">
<path d="M6.049 0.927052C6.34836 0.0057416 7.65177 0.00574088 7.95112 0.927052L8.79617 3.52786C8.93005 3.93989 9.314 4.21885 9.74723 4.21885H12.4819C13.4506 4.21885 13.8534 5.45846 13.0697 6.02786L10.8573 7.63525C10.5068 7.8899 10.3601 8.34127 10.494 8.75329L11.3391 11.3541C11.6384 12.2754 10.5839 13.0415 9.80023 12.4721L7.58785 10.8647C7.23736 10.6101 6.76276 10.6101 6.41228 10.8647L4.19989 12.4721C3.41618 13.0415 2.3617 12.2754 2.66105 11.3541L3.50611 8.75329C3.63998 8.34127 3.49332 7.8899 3.14283 7.63525L0.930452 6.02787C0.146739 5.45846 0.549513 4.21885 1.51824 4.21885H4.25289C4.68612 4.21885 5.07007 3.93989 5.20395 3.52786L6.049 0.927052Z" fill="#00B67A"/>
</svg>
