<svg width="50" height="50" viewBox="0 0 50 50" fill="none" xmlns="http://www.w3.org/2000/svg">
<rect opacity="0.25" width="50" height="50" rx="10" fill="#1675FF"/>
<path d="M36.875 23.625V15.125C36.875 13.25 36.075 12.5 34.0875 12.5H29.0375C27.05 12.5 26.25 13.25 26.25 15.125V23.625C26.25 25.5 27.05 26.25 29.0375 26.25H34.0875C36.075 26.25 36.875 25.5 36.875 23.625Z" fill="#1675FF"/>
<path d="M23.75 26.375V34.875C23.75 36.75 22.95 37.5 20.9625 37.5H15.9125C13.925 37.5 13.125 36.75 13.125 34.875V26.375C13.125 24.5 13.925 23.75 15.9125 23.75H20.9625C22.95 23.75 23.75 24.5 23.75 26.375Z" fill="#1675FF"/>
<path opacity="0.4" d="M36.875 34.875V31.375C36.875 29.5 36.075 28.75 34.0875 28.75H29.0375C27.05 28.75 26.25 29.5 26.25 31.375V34.875C26.25 36.75 27.05 37.5 29.0375 37.5H34.0875C36.075 37.5 36.875 36.75 36.875 34.875Z" fill="#1675FF"/>
<path opacity="0.4" d="M23.75 18.625V15.125C23.75 13.25 22.95 12.5 20.9625 12.5H15.9125C13.925 12.5 13.125 13.25 13.125 15.125V18.625C13.125 20.5 13.925 21.25 15.9125 21.25H20.9625C22.95 21.25 23.75 20.5 23.75 18.625Z" fill="#1675FF"/>
</svg>
