<svg width="50" height="50" viewBox="0 0 50 50" fill="none" xmlns="http://www.w3.org/2000/svg">
<rect opacity="0.25" width="50" height="50" rx="10" fill="#1675FF"/>
<path d="M33.4375 20V22.625C32.8875 22.55 32.2625 22.5125 31.5625 22.5V20C31.5625 16.0625 30.45 13.4375 25 13.4375C19.55 13.4375 18.4375 16.0625 18.4375 20V22.5C17.7375 22.5125 17.1125 22.55 16.5625 22.625V20C16.5625 16.375 17.4375 11.5625 25 11.5625C32.5625 11.5625 33.4375 16.375 33.4375 20Z" fill="#1675FF"/>
<path opacity="0.4" d="M37.5 28.75V31.25C37.5 36.25 36.25 37.5 31.25 37.5H18.75C13.75 37.5 12.5 36.25 12.5 31.25V28.75C12.5 24.575 13.375 23.0125 16.5625 22.625C17.1125 22.55 17.7375 22.5125 18.4375 22.5H31.5625C32.2625 22.5125 32.8875 22.55 33.4375 22.625C36.625 23.0125 37.5 24.575 37.5 28.75Z" fill="#1675FF"/>
<path d="M20 31.25C19.8375 31.25 19.675 31.2125 19.525 31.15C19.3625 31.0875 19.2375 31 19.1125 30.8875C18.8875 30.65 18.75 30.325 18.75 30C18.75 29.8375 18.7875 29.6749 18.85 29.5249C18.9125 29.3749 19 29.2374 19.1125 29.1124C19.2375 28.9999 19.3625 28.9125 19.525 28.85C19.9875 28.65 20.5375 28.7624 20.8875 29.1124C21 29.2374 21.0875 29.3749 21.15 29.5249C21.2125 29.6749 21.25 29.8375 21.25 30C21.25 30.325 21.1125 30.65 20.8875 30.8875C20.65 31.1125 20.325 31.25 20 31.25Z" fill="#1675FF"/>
<path d="M25 31.25C24.6625 31.25 24.35 31.1125 24.1125 30.8875C24 30.7625 23.9125 30.625 23.85 30.475C23.7875 30.325 23.75 30.1625 23.75 30C23.75 29.6625 23.8875 29.35 24.1125 29.1125C24.575 28.65 25.4125 28.65 25.8875 29.1125C26.1125 29.35 26.25 29.6625 26.25 30C26.25 30.1625 26.2125 30.325 26.15 30.475C26.0875 30.625 26 30.7625 25.8875 30.8875C25.65 31.1125 25.325 31.25 25 31.25Z" fill="#1675FF"/>
<path d="M30 31.25C29.675 31.25 29.35 31.1125 29.1125 30.8875C28.8875 30.65 28.75 30.3375 28.75 30C28.75 29.6625 28.8875 29.35 29.1125 29.1125C29.5875 28.65 30.425 28.65 30.8875 29.1125C30.9375 29.175 30.9875 29.2375 31.0375 29.3125C31.0875 29.375 31.125 29.45 31.15 29.525C31.1875 29.6 31.2125 29.675 31.225 29.75C31.2375 29.8375 31.25 29.925 31.25 30C31.25 30.325 31.1125 30.65 30.8875 30.8875C30.65 31.1125 30.325 31.25 30 31.25Z" fill="#1675FF"/>
</svg>
