<svg width="50" height="50" viewBox="0 0 50 50" fill="none" xmlns="http://www.w3.org/2000/svg">
<rect opacity="0.25" width="50" height="50" rx="10" fill="#1675FF"/>
<path opacity="0.4" d="M32.5 33.5749H31.55C30.55 33.5749 29.6 33.9624 28.9 34.6624L26.7625 36.7749C25.7875 37.7374 24.2 37.7374 23.225 36.7749L21.0875 34.6624C20.3875 33.9624 19.425 33.5749 18.4375 33.5749H17.5C15.425 33.5749 13.75 31.9125 13.75 29.8625V16.2249C13.75 14.1749 15.425 12.5125 17.5 12.5125H32.5C34.575 12.5125 36.25 14.1749 36.25 16.2249V29.8625C36.25 31.9 34.575 33.5749 32.5 33.5749Z" fill="#1675FF"/>
<path d="M22.975 28.1376H19.625C19.075 28.1376 18.5625 27.875 18.2375 27.425C17.925 27 17.85 26.4751 18 25.9751C18.4375 24.6376 19.5125 23.9125 20.4625 23.2625C21.4625 22.5875 22.025 22.1626 22.025 21.4376C22.025 20.7876 21.5 20.2626 20.85 20.2626C20.2 20.2626 19.675 20.7876 19.675 21.4376C19.675 21.9501 19.25 22.3751 18.7375 22.3751C18.225 22.3751 17.8 21.9501 17.8 21.4376C17.8 19.7626 19.1625 18.3876 20.85 18.3876C22.5375 18.3876 23.9 19.7501 23.9 21.4376C23.9 23.2001 22.575 24.1 21.5125 24.825C20.85 25.275 20.225 25.7001 19.9125 26.2626H22.9625C23.475 26.2626 23.9 26.6876 23.9 27.2001C23.9 27.7126 23.4875 28.1376 22.975 28.1376Z" fill="#1675FF"/>
<path d="M30.05 28.1376C29.5375 28.1376 29.1125 27.7126 29.1125 27.2001V26.3376H26.6625C26.6625 26.3376 26.6625 26.3376 26.65 26.3376C26.0375 26.3376 25.475 26.0126 25.1625 25.4876C24.85 24.9501 24.85 24.2876 25.1625 23.7626C26.0125 22.3001 27 20.6375 27.9 19.1875C28.3 18.55 29.0625 18.2626 29.775 18.4626C30.4875 18.6751 30.9875 19.325 30.975 20.075V24.4751H31.25C31.7625 24.4751 32.1875 24.9001 32.1875 25.4126C32.1875 25.9251 31.7625 26.3501 31.25 26.3501H30.9875V27.2126C30.9875 27.7251 30.575 28.1376 30.05 28.1376ZM29.1125 20.8001C28.375 22.0001 27.6125 23.2876 26.925 24.4626H29.1125V20.8001Z" fill="#1675FF"/>
</svg>
