<svg width="50" height="50" viewBox="0 0 50 50" fill="none" xmlns="http://www.w3.org/2000/svg">
<rect opacity="0.25" width="50" height="50" rx="10" fill="#1675FF"/>
<path opacity="0.4" d="M25 31.25V34.225C25 36.5625 24.0625 37.5 21.7125 37.5H15.775C13.4375 37.5 12.5 36.5625 12.5 34.225V28.2875C12.5 25.9375 13.4375 25 15.775 25H18.75V27.9625C18.75 30.3125 19.6875 31.25 22.025 31.25H25Z" fill="#1675FF"/>
<path opacity="0.6" d="M31.25 25V27.9625C31.25 30.3125 30.3125 31.25 27.9625 31.25H22.025C19.6875 31.25 18.75 30.3125 18.75 27.9625V22.025C18.75 19.6875 19.6875 18.75 22.025 18.75H25V21.7125C25 24.0625 25.9375 25 28.275 25H31.25Z" fill="#1675FF"/>
<path d="M37.5 15.775V21.7125C37.5 24.0625 36.5625 25 34.2125 25H28.275C25.9375 25 25 24.0625 25 21.7125V15.775C25 13.4375 25.9375 12.5 28.275 12.5H34.2125C36.5625 12.5 37.5 13.4375 37.5 15.775Z" fill="#1675FF"/>
</svg>
