<svg width="50" height="50" viewBox="0 0 50 50" fill="none" xmlns="http://www.w3.org/2000/svg">
<rect opacity="0.25" width="50" height="50" rx="10" fill="#1675FF"/>
<path opacity="0.4" d="M19.5625 36.1375C19.525 36.1375 19.475 36.1625 19.4375 36.1625C17.0125 34.9625 15.0375 32.975 13.825 30.55C13.825 30.5125 13.85 30.4625 13.85 30.425C15.375 30.875 16.95 31.2125 18.5125 31.475C18.7875 33.05 19.1125 34.6125 19.5625 36.1375Z" fill="#1675FF"/>
<path opacity="0.4" d="M36.175 30.5625C34.9375 33.0501 32.875 35.0626 30.3625 36.2751C30.8375 34.6876 31.2375 33.0875 31.5 31.475C33.075 31.2125 34.625 30.875 36.15 30.425C36.1375 30.475 36.175 30.525 36.175 30.5625Z" fill="#1675FF"/>
<path opacity="0.4" d="M36.275 19.6375C34.7 19.1625 33.1125 18.775 31.5 18.5C31.2375 16.8875 30.85 15.2875 30.3625 13.725C32.95 14.9625 35.0375 17.05 36.275 19.6375Z" fill="#1675FF"/>
<path opacity="0.4" d="M19.5625 13.8625C19.1125 15.3875 18.7875 16.9375 18.525 18.5125C16.9125 18.7625 15.3125 19.1625 13.725 19.6375C14.9375 17.125 16.95 15.0625 19.4375 13.825C19.475 13.825 19.525 13.8625 19.5625 13.8625Z" fill="#1675FF"/>
<path d="M29.3625 18.2375C26.4625 17.9125 23.5375 17.9125 20.6375 18.2375C20.95 16.525 21.35 14.8125 21.9125 13.1625C21.9375 13.0625 21.925 12.9875 21.9375 12.8875C22.925 12.65 23.9375 12.5 25 12.5C26.05 12.5 27.075 12.65 28.05 12.8875C28.0625 12.9875 28.0625 13.0625 28.0875 13.1625C28.65 14.825 29.05 16.525 29.3625 18.2375Z" fill="#1675FF"/>
<path d="M18.2375 29.3624C16.5125 29.0499 14.8125 28.65 13.1625 28.0875C13.0625 28.0625 12.9875 28.0749 12.8875 28.0624C12.65 27.075 12.5 26.0625 12.5 25C12.5 23.95 12.65 22.925 12.8875 21.95C12.9875 21.9375 13.0625 21.9375 13.1625 21.9125C14.825 21.3625 16.5125 20.95 18.2375 20.6375C17.925 23.5375 17.925 26.4625 18.2375 29.3624Z" fill="#1675FF"/>
<path d="M37.5 25C37.5 26.0625 37.35 27.075 37.1125 28.0624C37.0125 28.0749 36.9375 28.0625 36.8375 28.0875C35.175 28.6375 33.475 29.0499 31.7625 29.3624C32.0875 26.4625 32.0875 23.5375 31.7625 20.6375C33.475 20.95 35.1875 21.35 36.8375 21.9125C36.9375 21.9375 37.0125 21.95 37.1125 21.95C37.35 22.9375 37.5 23.95 37.5 25Z" fill="#1675FF"/>
<path d="M29.3625 31.7625C29.05 33.4875 28.65 35.1874 28.0875 36.8374C28.0625 36.9374 28.0625 37.0125 28.05 37.1125C27.075 37.35 26.05 37.5 25 37.5C23.9375 37.5 22.925 37.35 21.9375 37.1125C21.925 37.0125 21.9375 36.9374 21.9125 36.8374C21.3625 35.1749 20.95 33.4875 20.6375 31.7625C22.0875 31.925 23.5375 32.0375 25 32.0375C26.4625 32.0375 27.925 31.925 29.3625 31.7625Z" fill="#1675FF"/>
<path d="M29.7042 29.7042C26.5778 30.0986 23.4222 30.0986 20.2958 29.7042C19.9014 26.5778 19.9014 23.4222 20.2958 20.2958C23.4222 19.9014 26.5778 19.9014 29.7042 20.2958C30.0986 23.4222 30.0986 26.5778 29.7042 29.7042Z" fill="#1675FF"/>
</svg>
